<?xml version="1.0" standalone="no"?>
<!DOCTYPE svg PUBLIC "-//W3C//DTD SVG 20010904//EN"
 "http://www.w3.org/TR/2001/REC-SVG-20010904/DTD/svg10.dtd">
<svg version="1.0" xmlns="http://www.w3.org/2000/svg"
 width="470.000000pt" height="470.000000pt" viewBox="0 0 470.000000 470.000000"
 preserveAspectRatio="xMidYMid meet">
<metadata>
Created by potrace 1.11, written by Peter Selinger 2001-2013
</metadata>
<g transform="translate(0.000000,470.000000) scale(0.100000,-0.100000)"
fill="#000000" stroke="none">
<path d="M1480 4689 c-245 -45 -443 -181 -566 -389 -39 -67 -86 -185 -102
-258 -10 -46 -12 -3292 -2 -3359 42 -281 253 -536 522 -632 133 -47 105 -46
1003 -46 468 0 870 3 895 7 25 4 78 19 119 33 234 79 414 255 501 488 50 133
49 120 47 1372 l-2 1170 -29 53 c-27 48 -177 199 -763 769 -61 59 -258 252
-438 428 -205 201 -344 329 -373 345 l-47 25 -360 1 c-198 1 -380 -2 -405 -7z
m660 -401 c0 -62 2 -223 4 -358 4 -276 16 -351 83 -485 136 -272 382 -439 693
-470 19 -2 180 -4 358 -4 l322 -1 0 -1107 c-1 -1158 -1 -1155 -43 -1255 -61
-143 -210 -265 -366 -297 -36 -8 -303 -11 -845 -11 -870 1 -862 0 -978 62
-121 64 -228 208 -257 343 -14 70 -14 3220 0 3290 38 179 185 335 364 386 50
14 109 17 363 18 l302 2 0 -113z m512 -371 c97 -94 276 -269 397 -387 122
-118 221 -217 221 -220 0 -11 -346 -3 -400 10 -94 22 -179 70 -249 140 -65 64
-124 162 -135 222 -2 15 -8 33 -11 39 -9 13 -14 369 -6 369 3 0 86 -78 183
-173z"/>
<path d="M2262 1083 c-84 -29 -162 -138 -162 -228 0 -132 118 -255 245 -255
58 0 132 29 172 68 74 71 97 159 69 256 -39 134 -186 206 -324 159z"/>
</g>
</svg>
