<?xml version="1.0" encoding="UTF-8" standalone="no"?>
<svg width="118px" height="24px" viewBox="0 0 118 24" version="1.1" xmlns="http://www.w3.org/2000/svg" xmlns:xlink="http://www.w3.org/1999/xlink" xmlns:sketch="http://www.bohemiancoding.com/sketch/ns">
    <!-- Generator: Sketch 3.5.2 (25235) - http://www.bohemiancoding.com/sketch -->
    <title>Group 3 Copy</title>
    <desc>Created with Sketch.</desc>
    <defs></defs>
    <g id="Page-1" stroke="none" stroke-width="1" fill="none" fill-rule="evenodd" sketch:type="MSPage">
        <g id="Desktop-HD" sketch:type="MSArtboardGroup" transform="translate(-476.000000, -62.000000)">
            <g id="Group-3-Copy" sketch:type="MSLayerGroup" transform="translate(476.000000, 62.000000)">
                <g id="Group" fill="#6C63FF" sketch:type="MSShapeGroup">
                    <path d="M7.83880615,0.255310059 L15.5216069,7.74017334 L14.4647388,8.65384615 L6.99524254,1.38461538 L7.83880615,0.255310059 Z" id="Shape"></path>
                    <path d="M1.5375,19.8605937 L1.5375,19.8605937 C1.5375,21.3031607 2.7052259,22.4680851 4.15350151,22.4680851 L11.7339985,22.4680851 C13.1793971,22.4680851 14.35,21.3014758 14.35,19.8592787 L14.35,8.6737824 C14.35,8.75880763 14.4158394,8.8242223 14.4990018,8.8242223 L11.1798936,8.82422246 C8.80307024,8.82422257 6.87485783,6.90210028 6.87485769,4.53539892 L6.8748575,1.38020046 C6.87485751,1.46306903 6.94370866,1.53191489 7.03264764,1.53191489 L4.15072759,1.53191489 C2.70781161,1.53191489 1.5375,2.69904268 1.5375,4.1394063 L1.5375,19.8605937 Z M0,19.8605937 L0,19.8605937 L0,4.1394063 C0,1.85331771 1.85834404,0 4.15072759,0 L7.03264764,0 C7.7937767,0 8.41235746,0.617936755 8.4123575,1.38020037 L8.41235769,4.53539883 C8.41235778,6.0552671 9.65142578,7.29230763 11.1798935,7.29230756 L14.4990018,7.29230741 C15.2630308,7.29230737 15.8875,7.91081479 15.8875,8.6737824 L15.8875,19.8592787 C15.8875,22.1481478 14.027914,24 11.7339985,24 L4.15350151,24 C1.85359175,24 0,22.1467247 0,19.8605937 L0,19.8605937 Z" id="Shape"></path>
                    <rect id="Rectangle-10835" x="6.6625" y="18.3829787" width="2.5625" height="2.55319149" rx="18.3829787"></rect>
                </g>
                <path d="M25.36,14.816 L24,14.816 C24.0213334,15.3280026 24.127999,15.7626649 24.32,16.12 C24.512001,16.4773351 24.7679984,16.7653322 25.088,16.984 C25.4080016,17.2026678 25.7759979,17.3599995 26.192,17.456 C26.6080021,17.5520005 27.045331,17.6 27.504,17.6 C27.9200021,17.6 28.3386646,17.5600004 28.76,17.48 C29.1813354,17.3999996 29.5599983,17.2586677 29.896,17.056 C30.2320017,16.8533323 30.503999,16.5866683 30.712,16.256 C30.920001,15.9253317 31.024,15.5093358 31.024,15.008 C31.024,14.6133314 30.9466674,14.282668 30.792,14.016 C30.6373326,13.749332 30.4346679,13.5280009 30.184,13.352 C29.9333321,13.1759991 29.645335,13.0346672 29.32,12.928 C28.994665,12.8213328 28.661335,12.730667 28.32,12.656 C27.9999984,12.581333 27.6800016,12.5093337 27.36,12.44 C27.0399984,12.3706663 26.7520013,12.2853338 26.496,12.184 C26.2399987,12.0826662 26.0293342,11.9546674 25.864,11.8 C25.6986658,11.6453326 25.616,11.4506678 25.616,11.216 C25.616,11.0026656 25.6693328,10.829334 25.776,10.696 C25.8826672,10.562666 26.0213325,10.4560004 26.192,10.376 C26.3626675,10.2959996 26.551999,10.2400002 26.76,10.208 C26.968001,10.1759998 27.1733323,10.16 27.376,10.16 C27.6000011,10.16 27.8213322,10.1839998 28.04,10.232 C28.2586678,10.2800002 28.4586658,10.3573328 28.64,10.464 C28.8213342,10.5706672 28.9706661,10.7119991 29.088,10.888 C29.2053339,11.0640009 29.2746666,11.285332 29.296,11.552 L30.656,11.552 C30.6239998,11.0506642 30.5173342,10.6320017 30.336,10.296 C30.1546658,9.95999832 29.9120015,9.69333432 29.608,9.496 C29.3039985,9.29866568 28.9546686,9.1600004 28.56,9.08 C28.1653314,8.9999996 27.7333357,8.96 27.264,8.96 C26.9013315,8.96 26.5360018,9.00533288 26.168,9.096 C25.7999982,9.18666712 25.4693348,9.3253324 25.176,9.512 C24.8826652,9.6986676 24.6426676,9.94133184 24.456,10.24 C24.2693324,10.5386682 24.176,10.8959979 24.176,11.312 C24.176,11.845336 24.309332,12.2613318 24.576,12.56 C24.842668,12.8586682 25.175998,13.0906658 25.576,13.256 C25.976002,13.4213342 26.4106643,13.5493329 26.88,13.64 C27.3493357,13.7306671 27.783998,13.8319994 28.184,13.944 C28.584002,14.0560006 28.917332,14.2026658 29.184,14.384 C29.450668,14.5653342 29.584,14.8319982 29.584,15.184 C29.584,15.4400013 29.5200006,15.6506658 29.392,15.816 C29.2639994,15.9813342 29.1013343,16.1066662 28.904,16.192 C28.7066657,16.2773338 28.4906678,16.3359998 28.256,16.368 C28.0213322,16.4000002 27.7973344,16.416 27.584,16.416 C27.3066653,16.416 27.0373346,16.3893336 26.776,16.336 C26.5146654,16.2826664 26.280001,16.1946673 26.072,16.072 C25.863999,15.9493327 25.6960006,15.784001 25.568,15.576 C25.4399994,15.367999 25.3706667,15.1146682 25.36,14.816 L25.36,14.816 Z M32.608,6 L32.608,17.424 L33.968,17.424 L33.968,14.288 L35.248,13.104 L38.08,17.424 L39.808,17.424 L36.288,12.16 L39.568,9.152 L37.744,9.152 L33.968,12.768 L33.968,6 L32.608,6 Z M46.576,12.496 L41.824,12.496 C41.8453334,12.1759984 41.9146661,11.8746681 42.032,11.592 C42.1493339,11.3093319 42.3093323,11.0613344 42.512,10.848 C42.7146677,10.6346656 42.9573319,10.4666673 43.24,10.344 C43.5226681,10.2213327 43.8399982,10.16 44.192,10.16 C44.533335,10.16 44.8453319,10.2213327 45.128,10.344 C45.4106681,10.4666673 45.655999,10.631999 45.864,10.84 C46.072001,11.048001 46.2373327,11.2959986 46.36,11.584 C46.4826673,11.8720014 46.5546666,12.1759984 46.576,12.496 L46.576,12.496 Z M47.888,14.8 L46.544,14.8 C46.4266661,15.3440027 46.1840018,15.749332 45.816,16.016 C45.4479982,16.282668 44.9760029,16.416 44.4,16.416 C43.9519978,16.416 43.5626683,16.3413341 43.232,16.192 C42.9013317,16.0426659 42.6293344,15.8426679 42.416,15.592 C42.2026656,15.3413321 42.0480005,15.053335 41.952,14.728 C41.8559995,14.402665 41.8133333,14.0586685 41.824,13.696 L48.016,13.696 C48.0373334,13.1946642 47.9920006,12.6666694 47.88,12.112 C47.7679994,11.5573306 47.5653348,11.0453357 47.272,10.576 C46.9786652,10.1066643 46.5893358,9.72000152 46.104,9.416 C45.6186642,9.11199848 45.0080037,8.96 44.272,8.96 C43.7066638,8.96 43.186669,9.0666656 42.712,9.28 C42.237331,9.4933344 41.8266684,9.79199808 41.48,10.176 C41.1333316,10.5600019 40.864001,11.0133307 40.672,11.536 C40.479999,12.0586693 40.384,12.6346635 40.384,13.264 C40.4053334,13.8933365 40.4986658,14.474664 40.664,15.008 C40.8293342,15.541336 41.0773317,15.9999981 41.408,16.384 C41.7386683,16.7680019 42.1466642,17.0666656 42.632,17.28 C43.1173358,17.4933344 43.6906634,17.6 44.352,17.6 C45.2906714,17.6 46.0693302,17.3653357 46.688,16.896 C47.3066698,16.4266643 47.7066658,15.7280046 47.888,14.8 L47.888,14.8 Z M51.312,9.152 L51.312,6.672 L49.952,6.672 L49.952,9.152 L48.544,9.152 L48.544,10.352 L49.952,10.352 L49.952,15.616 C49.952,16.0000019 49.989333,16.3093322 50.064,16.544 C50.138667,16.7786678 50.2533326,16.9599994 50.408,17.088 C50.5626674,17.2160006 50.7653321,17.3039998 51.016,17.352 C51.2666679,17.4000002 51.5679982,17.424 51.92,17.424 L52.96,17.424 L52.96,16.224 L52.336,16.224 C52.1226656,16.224 51.949334,16.2160001 51.816,16.2 C51.682666,16.1839999 51.578667,16.1493336 51.504,16.096 C51.429333,16.0426664 51.3786668,15.9680005 51.352,15.872 C51.3253332,15.7759995 51.312,15.6480008 51.312,15.488 L51.312,10.352 L52.96,10.352 L52.96,9.152 L51.312,9.152 Z M60.08,11.808 L61.488,11.808 C61.4346664,11.3173309 61.3066677,10.8933351 61.104,10.536 C60.9013323,10.1786649 60.6426682,9.88266784 60.328,9.648 C60.0133318,9.41333216 59.6506687,9.24000056 59.24,9.128 C58.8293313,9.01599944 58.3893357,8.96 57.92,8.96 C57.2693301,8.96 56.6986691,9.07466552 56.208,9.304 C55.7173309,9.53333448 55.309335,9.847998 54.984,10.248 C54.658665,10.648002 54.4160008,11.1173306 54.256,11.656 C54.0959992,12.1946694 54.016,12.7733302 54.016,13.392 C54.016,14.0106698 54.0986658,14.5786641 54.264,15.096 C54.4293342,15.6133359 54.674665,16.0586648 55,16.432 C55.325335,16.8053352 55.7306642,17.0933323 56.216,17.296 C56.7013358,17.4986677 57.2586635,17.6 57.888,17.6 C58.9440053,17.6 59.7786636,17.3226694 60.392,16.768 C61.0053364,16.2133306 61.3866659,15.4240051 61.536,14.4 L60.144,14.4 C60.0586662,15.0400032 59.8266686,15.5359982 59.448,15.888 C59.0693314,16.2400018 58.5440034,16.416 57.872,16.416 C57.4453312,16.416 57.0773349,16.3306675 56.768,16.16 C56.4586651,15.9893325 56.208001,15.7626681 56.016,15.48 C55.823999,15.1973319 55.6826671,14.8746685 55.592,14.512 C55.5013329,14.1493315 55.456,13.7760019 55.456,13.392 C55.456,12.9759979 55.4986662,12.5733353 55.584,12.184 C55.6693338,11.7946647 55.8106657,11.4506682 56.008,11.152 C56.2053343,10.8533318 56.4693317,10.6133342 56.8,10.432 C57.1306683,10.2506658 57.5413309,10.16 58.032,10.16 C58.6080029,10.16 59.066665,10.3039986 59.408,10.592 C59.749335,10.8800014 59.9733328,11.2853307 60.08,11.808 L60.08,11.808 Z M63.056,6 L63.056,17.424 L64.416,17.424 L64.416,12.752 C64.416,12.3786648 64.4666662,12.0346682 64.568,11.72 C64.6693338,11.4053318 64.8213323,11.1306678 65.024,10.896 C65.2266677,10.6613322 65.4799985,10.4800006 65.784,10.352 C66.0880015,10.2239994 66.4479979,10.16 66.864,10.16 C67.3866693,10.16 67.7973318,10.3093318 68.096,10.608 C68.3946682,10.9066682 68.544,11.3119974 68.544,11.824 L68.544,17.424 L69.904,17.424 L69.904,11.984 C69.904,11.5359978 69.8586671,11.1280018 69.768,10.76 C69.6773329,10.3919982 69.5200011,10.074668 69.296,9.808 C69.0719989,9.541332 68.7786685,9.33333408 68.416,9.184 C68.0533315,9.03466592 67.6000027,8.96 67.056,8.96 C66.8106654,8.96 66.5573346,8.9866664 66.296,9.04 C66.0346654,9.0933336 65.7840012,9.17599944 65.544,9.288 C65.3039988,9.40000056 65.088001,9.54399912 64.896,9.72 C64.703999,9.89600088 64.5546672,10.1119987 64.448,10.368 L64.416,10.368 L64.416,6 L63.056,6 Z M72.784,14.816 L71.424,14.816 C71.4453334,15.3280026 71.551999,15.7626649 71.744,16.12 C71.936001,16.4773351 72.1919984,16.7653322 72.512,16.984 C72.8320016,17.2026678 73.1999979,17.3599995 73.616,17.456 C74.0320021,17.5520005 74.469331,17.6 74.928,17.6 C75.3440021,17.6 75.7626646,17.5600004 76.184,17.48 C76.6053354,17.3999996 76.9839983,17.2586677 77.32,17.056 C77.6560017,16.8533323 77.927999,16.5866683 78.136,16.256 C78.344001,15.9253317 78.448,15.5093358 78.448,15.008 C78.448,14.6133314 78.3706674,14.282668 78.216,14.016 C78.0613326,13.749332 77.8586679,13.5280009 77.608,13.352 C77.3573321,13.1759991 77.069335,13.0346672 76.744,12.928 C76.418665,12.8213328 76.085335,12.730667 75.744,12.656 C75.4239984,12.581333 75.1040016,12.5093337 74.784,12.44 C74.4639984,12.3706663 74.1760013,12.2853338 73.92,12.184 C73.6639987,12.0826662 73.4533342,11.9546674 73.288,11.8 C73.1226658,11.6453326 73.04,11.4506678 73.04,11.216 C73.04,11.0026656 73.0933328,10.829334 73.2,10.696 C73.3066672,10.562666 73.4453325,10.4560004 73.616,10.376 C73.7866675,10.2959996 73.975999,10.2400002 74.184,10.208 C74.392001,10.1759998 74.5973323,10.16 74.8,10.16 C75.0240011,10.16 75.2453322,10.1839998 75.464,10.232 C75.6826678,10.2800002 75.8826658,10.3573328 76.064,10.464 C76.2453342,10.5706672 76.3946661,10.7119991 76.512,10.888 C76.6293339,11.0640009 76.6986666,11.285332 76.72,11.552 L78.08,11.552 C78.0479998,11.0506642 77.9413342,10.6320017 77.76,10.296 C77.5786658,9.95999832 77.3360015,9.69333432 77.032,9.496 C76.7279985,9.29866568 76.3786686,9.1600004 75.984,9.08 C75.5893314,8.9999996 75.1573357,8.96 74.688,8.96 C74.3253315,8.96 73.9600018,9.00533288 73.592,9.096 C73.2239982,9.18666712 72.8933348,9.3253324 72.6,9.512 C72.3066652,9.6986676 72.0666676,9.94133184 71.88,10.24 C71.6933324,10.5386682 71.6,10.8959979 71.6,11.312 C71.6,11.845336 71.733332,12.2613318 72,12.56 C72.266668,12.8586682 72.599998,13.0906658 73,13.256 C73.400002,13.4213342 73.8346643,13.5493329 74.304,13.64 C74.7733357,13.7306671 75.207998,13.8319994 75.608,13.944 C76.008002,14.0560006 76.341332,14.2026658 76.608,14.384 C76.874668,14.5653342 77.008,14.8319982 77.008,15.184 C77.008,15.4400013 76.9440006,15.6506658 76.816,15.816 C76.6879994,15.9813342 76.5253343,16.1066662 76.328,16.192 C76.1306657,16.2773338 75.9146678,16.3359998 75.68,16.368 C75.4453322,16.4000002 75.2213344,16.416 75.008,16.416 C74.7306653,16.416 74.4613346,16.3893336 74.2,16.336 C73.9386654,16.2826664 73.704001,16.1946673 73.496,16.072 C73.287999,15.9493327 73.1200006,15.784001 72.992,15.576 C72.8639994,15.367999 72.7946667,15.1146682 72.784,14.816 L72.784,14.816 Z M79.952,6 L79.952,17.424 L81.312,17.424 L81.312,12.752 C81.312,12.3786648 81.3626662,12.0346682 81.464,11.72 C81.5653338,11.4053318 81.7173323,11.1306678 81.92,10.896 C82.1226677,10.6613322 82.3759985,10.4800006 82.68,10.352 C82.9840015,10.2239994 83.3439979,10.16 83.76,10.16 C84.2826693,10.16 84.6933318,10.3093318 84.992,10.608 C85.2906682,10.9066682 85.44,11.3119974 85.44,11.824 L85.44,17.424 L86.8,17.424 L86.8,11.984 C86.8,11.5359978 86.7546671,11.1280018 86.664,10.76 C86.5733329,10.3919982 86.4160011,10.074668 86.192,9.808 C85.9679989,9.541332 85.6746685,9.33333408 85.312,9.184 C84.9493315,9.03466592 84.4960027,8.96 83.952,8.96 C83.7066654,8.96 83.4533346,8.9866664 83.192,9.04 C82.9306654,9.0933336 82.6800012,9.17599944 82.44,9.288 C82.1999988,9.40000056 81.984001,9.54399912 81.792,9.72 C81.599999,9.89600088 81.4506672,10.1119987 81.344,10.368 L81.312,10.368 L81.312,6 L79.952,6 Z M94.592,12.496 L89.84,12.496 C89.8613334,12.1759984 89.9306661,11.8746681 90.048,11.592 C90.1653339,11.3093319 90.3253323,11.0613344 90.528,10.848 C90.7306677,10.6346656 90.9733319,10.4666673 91.256,10.344 C91.5386681,10.2213327 91.8559982,10.16 92.208,10.16 C92.549335,10.16 92.8613319,10.2213327 93.144,10.344 C93.4266681,10.4666673 93.671999,10.631999 93.88,10.84 C94.088001,11.048001 94.2533327,11.2959986 94.376,11.584 C94.4986673,11.8720014 94.5706666,12.1759984 94.592,12.496 L94.592,12.496 Z M95.904,14.8 L94.56,14.8 C94.4426661,15.3440027 94.2000018,15.749332 93.832,16.016 C93.4639982,16.282668 92.9920029,16.416 92.416,16.416 C91.9679978,16.416 91.5786683,16.3413341 91.248,16.192 C90.9173317,16.0426659 90.6453344,15.8426679 90.432,15.592 C90.2186656,15.3413321 90.0640005,15.053335 89.968,14.728 C89.8719995,14.402665 89.8293333,14.0586685 89.84,13.696 L96.032,13.696 C96.0533334,13.1946642 96.0080006,12.6666694 95.896,12.112 C95.7839994,11.5573306 95.5813348,11.0453357 95.288,10.576 C94.9946652,10.1066643 94.6053358,9.72000152 94.12,9.416 C93.6346642,9.11199848 93.0240037,8.96 92.288,8.96 C91.7226638,8.96 91.202669,9.0666656 90.728,9.28 C90.253331,9.4933344 89.8426684,9.79199808 89.496,10.176 C89.1493316,10.5600019 88.880001,11.0133307 88.688,11.536 C88.495999,12.0586693 88.4,12.6346635 88.4,13.264 C88.4213334,13.8933365 88.5146658,14.474664 88.68,15.008 C88.8453342,15.541336 89.0933317,15.9999981 89.424,16.384 C89.7546683,16.7680019 90.1626642,17.0666656 90.648,17.28 C91.1333358,17.4933344 91.7066634,17.6 92.368,17.6 C93.3066714,17.6 94.0853302,17.3653357 94.704,16.896 C95.3226698,16.4266643 95.7226658,15.7280046 95.904,14.8 L95.904,14.8 Z M103.184,12.496 L98.432,12.496 C98.4533334,12.1759984 98.5226661,11.8746681 98.64,11.592 C98.7573339,11.3093319 98.9173323,11.0613344 99.12,10.848 C99.3226677,10.6346656 99.5653319,10.4666673 99.848,10.344 C100.130668,10.2213327 100.447998,10.16 100.8,10.16 C101.141335,10.16 101.453332,10.2213327 101.736,10.344 C102.018668,10.4666673 102.263999,10.631999 102.472,10.84 C102.680001,11.048001 102.845333,11.2959986 102.968,11.584 C103.090667,11.8720014 103.162667,12.1759984 103.184,12.496 L103.184,12.496 Z M104.496,14.8 L103.152,14.8 C103.034666,15.3440027 102.792002,15.749332 102.424,16.016 C102.055998,16.282668 101.584003,16.416 101.008,16.416 C100.559998,16.416 100.170668,16.3413341 99.84,16.192 C99.5093317,16.0426659 99.2373344,15.8426679 99.024,15.592 C98.8106656,15.3413321 98.6560005,15.053335 98.56,14.728 C98.4639995,14.402665 98.4213333,14.0586685 98.432,13.696 L104.624,13.696 C104.645333,13.1946642 104.600001,12.6666694 104.488,12.112 C104.375999,11.5573306 104.173335,11.0453357 103.88,10.576 C103.586665,10.1066643 103.197336,9.72000152 102.712,9.416 C102.226664,9.11199848 101.616004,8.96 100.88,8.96 C100.314664,8.96 99.794669,9.0666656 99.32,9.28 C98.845331,9.4933344 98.4346684,9.79199808 98.088,10.176 C97.7413316,10.5600019 97.472001,11.0133307 97.28,11.536 C97.087999,12.0586693 96.992,12.6346635 96.992,13.264 C97.0133334,13.8933365 97.1066658,14.474664 97.272,15.008 C97.4373342,15.541336 97.6853317,15.9999981 98.016,16.384 C98.3466683,16.7680019 98.7546642,17.0666656 99.24,17.28 C99.7253358,17.4933344 100.298663,17.6 100.96,17.6 C101.898671,17.6 102.67733,17.3653357 103.296,16.896 C103.91467,16.4266643 104.314666,15.7280046 104.496,14.8 L104.496,14.8 Z M107.92,9.152 L107.92,6.672 L106.56,6.672 L106.56,9.152 L105.152,9.152 L105.152,10.352 L106.56,10.352 L106.56,15.616 C106.56,16.0000019 106.597333,16.3093322 106.672,16.544 C106.746667,16.7786678 106.861333,16.9599994 107.016,17.088 C107.170667,17.2160006 107.373332,17.3039998 107.624,17.352 C107.874668,17.4000002 108.175998,17.424 108.528,17.424 L109.568,17.424 L109.568,16.224 L108.944,16.224 C108.730666,16.224 108.557334,16.2160001 108.424,16.2 C108.290666,16.1839999 108.186667,16.1493336 108.112,16.096 C108.037333,16.0426664 107.986667,15.9680005 107.96,15.872 C107.933333,15.7759995 107.92,15.6480008 107.92,15.488 L107.92,10.352 L109.568,10.352 L109.568,9.152 L107.92,9.152 Z M111.904,14.816 L110.544,14.816 C110.565333,15.3280026 110.671999,15.7626649 110.864,16.12 C111.056001,16.4773351 111.311998,16.7653322 111.632,16.984 C111.952002,17.2026678 112.319998,17.3599995 112.736,17.456 C113.152002,17.5520005 113.589331,17.6 114.048,17.6 C114.464002,17.6 114.882665,17.5600004 115.304,17.48 C115.725335,17.3999996 116.103998,17.2586677 116.44,17.056 C116.776002,16.8533323 117.047999,16.5866683 117.256,16.256 C117.464001,15.9253317 117.568,15.5093358 117.568,15.008 C117.568,14.6133314 117.490667,14.282668 117.336,14.016 C117.181333,13.749332 116.978668,13.5280009 116.728,13.352 C116.477332,13.1759991 116.189335,13.0346672 115.864,12.928 C115.538665,12.8213328 115.205335,12.730667 114.864,12.656 C114.543998,12.581333 114.224002,12.5093337 113.904,12.44 C113.583998,12.3706663 113.296001,12.2853338 113.04,12.184 C112.783999,12.0826662 112.573334,11.9546674 112.408,11.8 C112.242666,11.6453326 112.16,11.4506678 112.16,11.216 C112.16,11.0026656 112.213333,10.829334 112.32,10.696 C112.426667,10.562666 112.565332,10.4560004 112.736,10.376 C112.906668,10.2959996 113.095999,10.2400002 113.304,10.208 C113.512001,10.1759998 113.717332,10.16 113.92,10.16 C114.144001,10.16 114.365332,10.1839998 114.584,10.232 C114.802668,10.2800002 115.002666,10.3573328 115.184,10.464 C115.365334,10.5706672 115.514666,10.7119991 115.632,10.888 C115.749334,11.0640009 115.818667,11.285332 115.84,11.552 L117.2,11.552 C117.168,11.0506642 117.061334,10.6320017 116.88,10.296 C116.698666,9.95999832 116.456002,9.69333432 116.152,9.496 C115.847998,9.29866568 115.498669,9.1600004 115.104,9.08 C114.709331,8.9999996 114.277336,8.96 113.808,8.96 C113.445332,8.96 113.080002,9.00533288 112.712,9.096 C112.343998,9.18666712 112.013335,9.3253324 111.72,9.512 C111.426665,9.6986676 111.186668,9.94133184 111,10.24 C110.813332,10.5386682 110.72,10.8959979 110.72,11.312 C110.72,11.845336 110.853332,12.2613318 111.12,12.56 C111.386668,12.8586682 111.719998,13.0906658 112.12,13.256 C112.520002,13.4213342 112.954664,13.5493329 113.424,13.64 C113.893336,13.7306671 114.327998,13.8319994 114.728,13.944 C115.128002,14.0560006 115.461332,14.2026658 115.728,14.384 C115.994668,14.5653342 116.128,14.8319982 116.128,15.184 C116.128,15.4400013 116.064001,15.6506658 115.936,15.816 C115.807999,15.9813342 115.645334,16.1066662 115.448,16.192 C115.250666,16.2773338 115.034668,16.3359998 114.8,16.368 C114.565332,16.4000002 114.341334,16.416 114.128,16.416 C113.850665,16.416 113.581335,16.3893336 113.32,16.336 C113.058665,16.2826664 112.824001,16.1946673 112.616,16.072 C112.407999,15.9493327 112.240001,15.784001 112.112,15.576 C111.983999,15.367999 111.914667,15.1146682 111.904,14.816 L111.904,14.816 Z" id="sketchsheets" fill="#202022" sketch:type="MSShapeGroup"></path>
            </g>
        </g>
    </g>
</svg>