<?xml version="1.0" encoding="UTF-8" standalone="no"?>
<svg width="132px" height="28px" viewBox="0 0 132 28" version="1.1" xmlns="http://www.w3.org/2000/svg" xmlns:xlink="http://www.w3.org/1999/xlink">
    <!-- Generator: Sketch 3.6.1 (26313) - http://www.bohemiancoding.com/sketch -->
    <title>Group 3 Copy</title>
    <desc>Created with Sketch.</desc>
    <defs></defs>
    <g id="Page-1" stroke="none" stroke-width="1" fill="none" fill-rule="evenodd">
        <g id="Desktop-HD-Copy-22" transform="translate(-438.000000, -42.000000)">
            <g id="Group-3-Copy" transform="translate(438.000000, 42.000000)">
                <g id="Group" fill="#6B5CED">
                    <path d="M9.09038025,0.297861736 L17.9998466,9.03020223 L16.7742349,10.0961538 L8.11213,1.61538462 L9.09038025,0.297861736 Z" id="Shape"></path>
                    <path d="M1.78298319,23.1706927 L1.78298319,23.1706927 C1.78298319,24.8536875 3.13715273,26.212766 4.81666562,26.212766 L13.607494,26.212766 C15.2836706,26.212766 16.6411765,24.8517218 16.6411765,23.1691585 L16.6411765,10.1194128 C16.6411765,10.2186089 16.717528,10.294926 16.8139685,10.294926 L12.9649186,10.2949262 C10.2086025,10.2949263 7.97252421,8.05245033 7.97252404,5.29129874 L7.97252383,1.61023387 C7.97252383,1.70691387 8.05236803,1.78723404 8.15550735,1.78723404 L4.8134488,1.78723404 C3.14015128,1.78723404 1.78298319,3.14888313 1.78298319,4.82930734 L1.78298319,23.1706927 Z M0,23.1706927 L0,23.1706927 L0,4.82930734 C0,2.16220399 2.15505443,0 4.8134488,0 L8.15550735,0 C9.03816121,0 9.75550697,0.720926215 9.75550702,1.61023377 L9.75550724,5.29129864 C9.75550734,7.06447828 11.1924097,8.50769224 12.9649186,8.50769216 L16.8139684,8.50769197 C17.6999853,8.50769193 18.4241597,9.22928392 18.4241597,10.1194128 L18.4241597,23.1691585 C18.4241597,25.8395058 16.267665,28 13.607494,28 L4.81666562,28 C2.14954337,28 0,25.8378455 0,23.1706927 L0,23.1706927 Z" id="Shape"></path>
                    <rect id="Rectangle-10835" x="7.7262605" y="21.4468085" width="2.97163866" height="2.9787234" rx="18.3829787"></rect>
                </g>
                <path d="M29.3314686,17.4451588 L27.8319328,17.4451588 C27.855455,18.0131017 27.9730645,18.4952545 28.1847647,18.8916313 C28.396465,19.2880082 28.6787277,19.6074714 29.0315615,19.8500303 C29.3843952,20.0925893 29.7901479,20.2671109 30.2488317,20.3736002 C30.7075156,20.4800895 31.1897145,20.5333333 31.6954428,20.5333333 C32.1541267,20.5333333 32.6157439,20.4889635 33.0803083,20.4002224 C33.5448727,20.3114813 33.9623864,20.1547077 34.3328618,19.9298969 C34.7033372,19.7050862 35.0032414,19.4092869 35.2325833,19.0424904 C35.4619252,18.6756939 35.5765945,18.2142472 35.5765945,17.6581363 C35.5765945,17.2203469 35.4913276,16.8535559 35.3207913,16.5577523 C35.150255,16.2619486 34.926797,16.0164353 34.6504105,15.8212049 C34.3740241,15.6259745 34.0564785,15.4692009 33.6977642,15.3508794 C33.3390499,15.232558 32.9715203,15.1319863 32.5951643,15.0491612 C32.2423306,14.9663362 31.8895022,14.8864704 31.5366684,14.8095615 C31.1838347,14.7326525 30.8662891,14.6379968 30.5840221,14.5255914 C30.3017551,14.413186 30.0694764,14.2712024 29.887179,14.0996363 C29.7048816,13.9280702 29.6137342,13.7121368 29.6137342,13.4518296 C29.6137342,13.2151866 29.6725389,13.0229172 29.7901502,12.8750153 C29.9077614,12.7271135 30.0606538,12.6087938 30.2488317,12.5200527 C30.4370097,12.4313117 30.6457666,12.3691938 30.8751085,12.3336974 C31.1044504,12.2982009 31.3308487,12.280453 31.55431,12.280453 C31.8012936,12.280453 32.0453333,12.3070749 32.2864364,12.3603196 C32.5275394,12.4135642 32.7480572,12.499346 32.9479963,12.6176675 C33.1479354,12.7359889 33.3125887,12.8927625 33.4419611,13.0879929 C33.5713334,13.2832233 33.6477796,13.5287366 33.6713018,13.8245403 L35.1708377,13.8245403 C35.1355543,13.2684294 35.0179448,12.8040247 34.8180057,12.4313121 C34.6180666,12.0585995 34.350505,11.7628003 34.015313,11.5439056 C33.680121,11.3250109 33.2949499,11.1711953 32.8597883,11.0824542 C32.4246267,10.9937131 31.9483083,10.9493433 31.4308188,10.9493433 C31.0309406,10.9493433 30.6281281,10.9996291 30.2223694,11.1002024 C29.8166106,11.2007756 29.4520212,11.3545912 29.1285903,11.5616537 C28.8051593,11.7687163 28.540538,12.0378936 28.3347183,12.3691936 C28.1288986,12.7004937 28.0259904,13.0968647 28.0259904,13.5583183 C28.0259904,14.1499256 28.1730022,14.6113724 28.4670303,14.9426725 C28.7610584,15.2739725 29.128588,15.5313178 29.5696302,15.7147161 C30.0106724,15.8981144 30.489931,16.040098 31.0074205,16.1406712 C31.52491,16.2412445 32.0041686,16.3536482 32.4452107,16.4778857 C32.8862529,16.6021232 33.2537825,16.7648128 33.5478106,16.9659593 C33.8418388,17.1671057 33.9888506,17.4629049 33.9888506,17.8533657 C33.9888506,18.1373372 33.9182849,18.3710186 33.7771514,18.5544169 C33.6360179,18.7378151 33.4566635,18.8768407 33.2390827,18.9714979 C33.0215019,19.0661551 32.7833427,19.1312309 32.5245979,19.1667273 C32.2658532,19.2022238 32.0188733,19.2199717 31.7836508,19.2199717 C31.4778616,19.2199717 31.1808976,19.1903918 30.8927501,19.1312311 C30.6046025,19.0720704 30.3458617,18.9744566 30.1165198,18.8383869 C29.8871778,18.7023173 29.7019429,18.5189218 29.5608094,18.2881949 C29.4196759,18.0574681 29.3432298,17.7764588 29.3314686,17.4451588 L29.3314686,17.4451588 Z M37.3231127,7.66593926 L37.3231127,20.3381039 L38.8226486,20.3381039 L38.8226486,16.8594705 L40.2339764,15.5461089 L43.3565393,20.3381039 L45.261832,20.3381039 L41.3806803,14.4989692 L44.997208,11.1623208 L42.9860658,11.1623208 L38.8226486,15.1733981 L38.8226486,7.66593926 L37.3231127,7.66593926 Z M52.7242281,14.8716799 L47.4846733,14.8716799 C47.5081956,14.5167156 47.5846418,14.1824625 47.7140141,13.8689106 C47.8433865,13.5553588 48.0198007,13.2802655 48.2432621,13.0436226 C48.4667234,12.8069797 48.734285,12.6206262 49.0459548,12.4845565 C49.3576246,12.3484868 49.7075128,12.280453 50.0956299,12.280453 C50.4719859,12.280453 50.8159936,12.3484868 51.1276634,12.4845565 C51.4393332,12.6206262 51.709835,12.8040217 51.9391769,13.0347485 C52.1685189,13.2654754 52.3508136,13.5405686 52.4860665,13.8600365 C52.6213194,14.1795045 52.7007058,14.5167156 52.7242281,14.8716799 L52.7242281,14.8716799 Z M54.1708391,17.4274106 L52.6889449,17.4274106 C52.5595725,18.0308501 52.2920109,18.4804648 51.8862521,18.7762685 C51.4804933,19.0720721 50.9600714,19.2199717 50.3249707,19.2199717 C49.8310035,19.2199717 49.4017289,19.137148 49.037134,18.9714979 C48.6725391,18.8058479 48.372635,18.5839985 48.1374125,18.305943 C47.90219,18.0278876 47.7316563,17.7084245 47.6258061,17.347544 C47.519956,16.9866636 47.4729122,16.6050826 47.4846733,16.2027897 L54.3119719,16.2027897 C54.3354942,15.6466788 54.2855101,15.0609964 54.1620183,14.4457248 C54.0385265,13.8304533 53.8150685,13.2625188 53.4916376,12.7419044 C53.1682067,12.22129 52.7389321,11.7923811 52.2038009,11.455165 C51.6686698,11.1179488 50.9953555,10.9493433 50.1838379,10.9493433 C49.5604983,10.9493433 48.9871521,11.0676629 48.4637821,11.3043059 C47.940412,11.5409488 47.4876155,11.8722439 47.105379,12.2982011 C46.7231424,12.7241584 46.4261785,13.227017 46.2144783,13.8067922 C46.002778,14.3865673 45.8969295,15.0254936 45.8969295,15.7235902 C45.9204517,16.4216868 46.02336,17.066529 46.2056575,17.6581363 C46.3879549,18.2497436 46.6613969,18.7585182 47.0259918,19.1844755 C47.3905866,19.6104327 47.8404429,19.9417278 48.3755741,20.1783707 C48.9107052,20.4150137 49.5428562,20.5333333 50.2720459,20.5333333 C51.3070248,20.5333333 52.165574,20.27303 52.8477193,19.7524156 C53.5298645,19.2318012 53.9709,18.4568073 54.1708391,17.4274106 L54.1708391,17.4274106 Z M57.9461412,11.1623208 L57.9461412,8.41136071 L56.4466053,8.41136071 L56.4466053,11.1623208 L54.8941447,11.1623208 L54.8941447,12.4934306 L56.4466053,12.4934306 L56.4466053,18.3325652 C56.4466053,18.7585225 56.4877686,19.1016496 56.5700965,19.3619568 C56.6524244,19.622264 56.7788546,19.8234074 56.9493909,19.9653932 C57.1199272,20.1073789 57.3433852,20.2049927 57.6197716,20.2582373 C57.896158,20.311482 58.2284048,20.3381039 58.6165219,20.3381039 L59.7632258,20.3381039 L59.7632258,19.0069942 L59.0752035,19.0069942 C58.839981,19.0069942 58.6488656,18.9981202 58.5018515,18.980372 C58.3548375,18.9626238 58.2401682,18.9241699 58.1578404,18.8650091 C58.0755125,18.8058484 58.019648,18.7230246 57.9902452,18.6165353 C57.9608424,18.510046 57.9461412,18.3680624 57.9461412,18.1905802 L57.9461412,12.4934306 L59.7632258,12.4934306 L59.7632258,11.1623208 L57.9461412,11.1623208 Z M67.6137371,14.1085104 L69.1661977,14.1085104 C69.1073921,13.5642317 68.9662607,13.0939109 68.7427994,12.697534 C68.519338,12.3011572 68.234135,11.9728201 67.8871819,11.7125128 C67.5402287,11.4522056 67.1403565,11.2599362 66.6875532,11.1356986 C66.2347499,11.0114611 65.7496108,10.9493433 65.2321213,10.9493433 C64.5146927,10.9493433 63.885482,11.0765369 63.3444703,11.3309281 C62.8034586,11.5853192 62.3536023,11.9343622 61.994888,12.3780677 C61.6361737,12.8217732 61.3686121,13.3423798 61.1921953,13.9399031 C61.0157784,14.5374265 60.9275713,15.1793108 60.9275713,15.8655752 C60.9275713,16.5518397 61.0187186,17.181892 61.2010161,17.755751 C61.3833135,18.3296101 61.6538153,18.8235948 62.0125296,19.2377199 C62.3712439,19.651845 62.8181599,19.9713081 63.3532911,20.1961189 C63.8884222,20.4209296 64.5029318,20.5333333 65.1968381,20.5333333 C66.3611894,20.5333333 67.2814836,20.2257022 67.9577482,19.6104306 C68.6340129,18.995159 69.0544668,18.1195934 69.2191225,16.9837074 L67.6843035,16.9837074 C67.5902145,17.6936361 67.3344139,18.2438226 66.9168939,18.6342834 C66.499374,19.0247443 65.9201473,19.2199717 65.1791965,19.2199717 C64.7087515,19.2199717 64.3029988,19.125316 63.9619262,18.9360017 C63.6208536,18.7466873 63.3444713,18.495258 63.1327711,18.1817061 C62.9210709,17.8681543 62.7652383,17.5102372 62.6652687,17.1079443 C62.5652992,16.7056513 62.5153152,16.2915325 62.5153152,15.8655752 C62.5153152,15.4041215 62.5623589,14.9574647 62.6564479,14.5255914 C62.7505369,14.0937181 62.9063695,13.7121371 63.1239503,13.380837 C63.3415311,13.049537 63.6326146,12.7833177 63.9972094,12.5821712 C64.3618043,12.3810247 64.8146008,12.280453 65.3556125,12.280453 C65.9907132,12.280453 66.496434,12.4401846 66.87279,12.7596525 C67.2491459,13.0791204 67.4961258,13.5287352 67.6137371,14.1085104 L67.6137371,14.1085104 Z M70.8950744,7.66593926 L70.8950744,20.3381039 L72.3946102,20.3381039 L72.3946102,15.15565 C72.3946102,14.7415249 72.4504747,14.3599439 72.5622054,14.0108956 C72.6739361,13.6618474 72.8415296,13.3571742 73.064991,13.096867 C73.2884523,12.8365598 73.5677749,12.6354163 73.9029669,12.4934306 C74.2381589,12.3514448 74.6350909,12.280453 75.0937748,12.280453 C75.6700699,12.280453 76.1228664,12.4461006 76.4521779,12.7774006 C76.7814893,13.1087007 76.9461426,13.5583155 76.9461426,14.1262585 L76.9461426,20.3381039 L78.4456785,20.3381039 L78.4456785,14.3037398 C78.4456785,13.8067897 78.3956944,13.3542169 78.2957249,12.9460079 C78.1957553,12.5377988 78.0222814,12.1857978 77.7752977,11.8899941 C77.5283141,11.5941905 77.2048881,11.3634671 76.8050098,11.1978171 C76.4051316,11.032167 75.9052913,10.9493433 75.305474,10.9493433 C75.0349681,10.9493433 74.7556456,10.9789232 74.467498,11.0380839 C74.1793505,11.0972446 73.9029682,11.1889424 73.6383429,11.3131799 C73.3737176,11.4374175 73.1355584,11.597149 72.9238582,11.7923794 C72.712158,11.9876098 72.5475047,12.2272072 72.4298934,12.5111787 L72.3946102,12.5111787 L72.3946102,7.66593926 L70.8950744,7.66593926 Z M81.6211662,17.4451588 L80.1216303,17.4451588 C80.1451526,18.0131017 80.262762,18.4952545 80.4744623,18.8916313 C80.6861625,19.2880082 80.9684253,19.6074714 81.321259,19.8500303 C81.6740927,20.0925893 82.0798454,20.2671109 82.5385293,20.3736002 C82.9972131,20.4800895 83.479412,20.5333333 83.9851404,20.5333333 C84.4438242,20.5333333 84.9054414,20.4889635 85.3700058,20.4002224 C85.8345702,20.3114813 86.2520839,20.1547077 86.6225593,19.9298969 C86.9930347,19.7050862 87.2929389,19.4092869 87.5222808,19.0424904 C87.7516228,18.6756939 87.866292,18.2142472 87.866292,17.6581363 C87.866292,17.2203469 87.7810251,16.8535559 87.6104888,16.5577523 C87.4399525,16.2619486 87.2164945,16.0164353 86.9401081,15.8212049 C86.6637217,15.6259745 86.3461761,15.4692009 85.9874618,15.3508794 C85.6287475,15.232558 85.2612179,15.1319863 84.8848619,15.0491612 C84.5320281,14.9663362 84.1791997,14.8864704 83.826366,14.8095615 C83.4735322,14.7326525 83.1559867,14.6379968 82.8737197,14.5255914 C82.5914527,14.413186 82.359174,14.2712024 82.1768765,14.0996363 C81.9945791,13.9280702 81.9034318,13.7121368 81.9034318,13.4518296 C81.9034318,13.2151866 81.9622365,13.0229172 82.0798477,12.8750153 C82.197459,12.7271135 82.3503513,12.6087938 82.5385293,12.5200527 C82.7267073,12.4313117 82.9354641,12.3691938 83.164806,12.3336974 C83.394148,12.2982009 83.6205462,12.280453 83.8440076,12.280453 C84.0909912,12.280453 84.3350309,12.3070749 84.5761339,12.3603196 C84.817237,12.4135642 85.0377547,12.499346 85.2376938,12.6176675 C85.437633,12.7359889 85.6022862,12.8927625 85.7316586,13.0879929 C85.861031,13.2832233 85.9374771,13.5287366 85.9609994,13.8245403 L87.4605352,13.8245403 C87.4252519,13.2684294 87.3076424,12.8040247 87.1077033,12.4313121 C86.9077642,12.0585995 86.6402026,11.7628003 86.3050105,11.5439056 C85.9698185,11.3250109 85.5846475,11.1711953 85.1494859,11.0824542 C84.7143243,10.9937131 84.2380059,10.9493433 83.7205164,10.9493433 C83.3206382,10.9493433 82.9178257,10.9996291 82.5120669,11.1002024 C82.1063081,11.2007756 81.7417187,11.3545912 81.4182878,11.5616537 C81.0948569,11.7687163 80.8302356,12.0378936 80.6244159,12.3691936 C80.4185962,12.7004937 80.3156879,13.0968647 80.3156879,13.5583183 C80.3156879,14.1499256 80.4626998,14.6113724 80.7567279,14.9426725 C81.050756,15.2739725 81.4182856,15.5313178 81.8593278,15.7147161 C82.3003699,15.8981144 82.7796286,16.040098 83.297118,16.1406712 C83.8146075,16.2412445 84.2938661,16.3536482 84.7349083,16.4778857 C85.1759505,16.6021232 85.5434801,16.7648128 85.8375082,16.9659593 C86.1315363,17.1671057 86.2785481,17.4629049 86.2785481,17.8533657 C86.2785481,18.1373372 86.2079825,18.3710186 86.066849,18.5544169 C85.9257155,18.7378151 85.746361,18.8768407 85.5287802,18.9714979 C85.3111994,19.0661551 85.0730402,19.1312309 84.8142955,19.1667273 C84.5555507,19.2022238 84.3085708,19.2199717 84.0733484,19.2199717 C83.7675591,19.2199717 83.4705952,19.1903918 83.1824476,19.1312311 C82.8943001,19.0720704 82.6355592,18.9744566 82.4062173,18.8383869 C82.1768754,18.7023173 81.9916405,18.5189218 81.850507,18.2881949 C81.7093735,18.0574681 81.6329273,17.7764588 81.6211662,17.4451588 L81.6211662,17.4451588 Z M89.5246022,7.66593926 L89.5246022,20.3381039 L91.0241381,20.3381039 L91.0241381,15.15565 C91.0241381,14.7415249 91.0800026,14.3599439 91.1917333,14.0108956 C91.303464,13.6618474 91.4710575,13.3571742 91.6945188,13.096867 C91.9179802,12.8365598 92.1973027,12.6354163 92.5324948,12.4934306 C92.8676868,12.3514448 93.2646188,12.280453 93.7233027,12.280453 C94.2995978,12.280453 94.7523943,12.4461006 95.0817057,12.7774006 C95.4110172,13.1087007 95.5756705,13.5583155 95.5756705,14.1262585 L95.5756705,20.3381039 L97.0752063,20.3381039 L97.0752063,14.3037398 C97.0752063,13.8067897 97.0252223,13.3542169 96.9252528,12.9460079 C96.8252832,12.5377988 96.6518092,12.1857978 96.4048256,11.8899941 C96.157842,11.5941905 95.8344159,11.3634671 95.4345377,11.1978171 C95.0346595,11.032167 94.5348192,10.9493433 93.9350018,10.9493433 C93.664496,10.9493433 93.3851735,10.9789232 93.0970259,11.0380839 C92.8088784,11.0972446 92.5324961,11.1889424 92.2678708,11.3131799 C92.0032455,11.4374175 91.7650863,11.597149 91.5533861,11.7923794 C91.3416858,11.9876098 91.1770325,12.2272072 91.0594213,12.5111787 L91.0241381,12.5111787 L91.0241381,7.66593926 L89.5246022,7.66593926 Z M105.666665,14.8716799 L100.42711,14.8716799 C100.450632,14.5167156 100.527078,14.1824625 100.656451,13.8689106 C100.785823,13.5553588 100.962237,13.2802655 101.185699,13.0436226 C101.40916,12.8069797 101.676722,12.6206262 101.988391,12.4845565 C102.300061,12.3484868 102.649949,12.280453 103.038067,12.280453 C103.414423,12.280453 103.75843,12.3484868 104.0701,12.4845565 C104.38177,12.6206262 104.652272,12.8040217 104.881614,13.0347485 C105.110956,13.2654754 105.29325,13.5405686 105.428503,13.8600365 C105.563756,14.1795045 105.643143,14.5167156 105.666665,14.8716799 L105.666665,14.8716799 Z M107.113276,17.4274106 L105.631382,17.4274106 C105.502009,18.0308501 105.234448,18.4804648 104.828689,18.7762685 C104.42293,19.0720721 103.902508,19.2199717 103.267407,19.2199717 C102.77344,19.2199717 102.344166,19.137148 101.979571,18.9714979 C101.614976,18.8058479 101.315072,18.5839985 101.079849,18.305943 C100.844627,18.0278876 100.674093,17.7084245 100.568243,17.347544 C100.462393,16.9866636 100.415349,16.6050826 100.42711,16.2027897 L107.254409,16.2027897 C107.277931,15.6466788 107.227947,15.0609964 107.104455,14.4457248 C106.980963,13.8304533 106.757505,13.2625188 106.434074,12.7419044 C106.110643,12.22129 105.681369,11.7923811 105.146238,11.455165 C104.611106,11.1179488 103.937792,10.9493433 103.126275,10.9493433 C102.502935,10.9493433 101.929589,11.0676629 101.406219,11.3043059 C100.882849,11.5409488 100.430052,11.8722439 100.047816,12.2982011 C99.6655791,12.7241584 99.3686152,13.227017 99.156915,13.8067922 C98.9452147,14.3865673 98.8393662,15.0254936 98.8393662,15.7235902 C98.8628884,16.4216868 98.9657967,17.066529 99.1480942,17.6581363 C99.3303916,18.2497436 99.6038336,18.7585182 99.9684285,19.1844755 C100.333023,19.6104327 100.78288,19.9417278 101.318011,20.1783707 C101.853142,20.4150137 102.485293,20.5333333 103.214483,20.5333333 C104.249462,20.5333333 105.108011,20.27303 105.790156,19.7524156 C106.472301,19.2318012 106.913337,18.4568073 107.113276,17.4274106 L107.113276,17.4274106 Z M115.140203,14.8716799 L109.900648,14.8716799 C109.924171,14.5167156 110.000617,14.1824625 110.129989,13.8689106 C110.259362,13.5553588 110.435776,13.2802655 110.659237,13.0436226 C110.882698,12.8069797 111.15026,12.6206262 111.46193,12.4845565 C111.7736,12.3484868 112.123488,12.280453 112.511605,12.280453 C112.887961,12.280453 113.231969,12.3484868 113.543638,12.4845565 C113.855308,12.6206262 114.12581,12.8040217 114.355152,13.0347485 C114.584494,13.2654754 114.766789,13.5405686 114.902041,13.8600365 C115.037294,14.1795045 115.116681,14.5167156 115.140203,14.8716799 L115.140203,14.8716799 Z M116.586814,17.4274106 L115.10492,17.4274106 C114.975548,18.0308501 114.707986,18.4804648 114.302227,18.7762685 C113.896468,19.0720721 113.376046,19.2199717 112.740946,19.2199717 C112.246978,19.2199717 111.817704,19.137148 111.453109,18.9714979 C111.088514,18.8058479 110.78861,18.5839985 110.553387,18.305943 C110.318165,18.0278876 110.147631,17.7084245 110.041781,17.347544 C109.935931,16.9866636 109.888887,16.6050826 109.900648,16.2027897 L116.727947,16.2027897 C116.751469,15.6466788 116.701485,15.0609964 116.577993,14.4457248 C116.454502,13.8304533 116.231044,13.2625188 115.907613,12.7419044 C115.584182,12.22129 115.154907,11.7923811 114.619776,11.455165 C114.084645,11.1179488 113.41133,10.9493433 112.599813,10.9493433 C111.976473,10.9493433 111.403127,11.0676629 110.879757,11.3043059 C110.356387,11.5409488 109.903591,11.8722439 109.521354,12.2982011 C109.139117,12.7241584 108.842154,13.227017 108.630453,13.8067922 C108.418753,14.3865673 108.312905,15.0254936 108.312905,15.7235902 C108.336427,16.4216868 108.439335,17.066529 108.621632,17.6581363 C108.80393,18.2497436 109.077372,18.7585182 109.441967,19.1844755 C109.806562,19.6104327 110.256418,19.9417278 110.791549,20.1783707 C111.32668,20.4150137 111.958831,20.5333333 112.688021,20.5333333 C113.723,20.5333333 114.581549,20.27303 115.263694,19.7524156 C115.945839,19.2318012 116.386875,18.4568073 116.586814,17.4274106 L116.586814,17.4274106 Z M120.362116,11.1623208 L120.362116,8.41136071 L118.86258,8.41136071 L118.86258,11.1623208 L117.31012,11.1623208 L117.31012,12.4934306 L118.86258,12.4934306 L118.86258,18.3325652 C118.86258,18.7585225 118.903744,19.1016496 118.986072,19.3619568 C119.068399,19.622264 119.19483,19.8234074 119.365366,19.9653932 C119.535902,20.1073789 119.75936,20.2049927 120.035747,20.2582373 C120.312133,20.311482 120.64438,20.3381039 121.032497,20.3381039 L122.179201,20.3381039 L122.179201,19.0069942 L121.491178,19.0069942 C121.255956,19.0069942 121.064841,18.9981202 120.917827,18.980372 C120.770812,18.9626238 120.656143,18.9241699 120.573815,18.8650091 C120.491487,18.8058484 120.435623,18.7230246 120.40622,18.6165353 C120.376817,18.510046 120.362116,18.3680624 120.362116,18.1905802 L120.362116,12.4934306 L122.179201,12.4934306 L122.179201,11.1623208 L120.362116,11.1623208 Z M124.754874,17.4451588 L123.255338,17.4451588 C123.278861,18.0131017 123.39647,18.4952545 123.60817,18.8916313 C123.819871,19.2880082 124.102133,19.6074714 124.454967,19.8500303 C124.807801,20.0925893 125.213553,20.2671109 125.672237,20.3736002 C126.130921,20.4800895 126.61312,20.5333333 127.118848,20.5333333 C127.577532,20.5333333 128.039149,20.4889635 128.503714,20.4002224 C128.968278,20.3114813 129.385792,20.1547077 129.756267,19.9298969 C130.126743,19.7050862 130.426647,19.4092869 130.655989,19.0424904 C130.885331,18.6756939 131,18.2142472 131,17.6581363 C131,17.2203469 130.914733,16.8535559 130.744197,16.5577523 C130.573661,16.2619486 130.350203,16.0164353 130.073816,15.8212049 C129.79743,15.6259745 129.479884,15.4692009 129.12117,15.3508794 C128.762455,15.232558 128.394926,15.1319863 128.01857,15.0491612 C127.665736,14.9663362 127.312908,14.8864704 126.960074,14.8095615 C126.60724,14.7326525 126.289695,14.6379968 126.007428,14.5255914 C125.725161,14.413186 125.492882,14.2712024 125.310585,14.0996363 C125.128287,13.9280702 125.03714,13.7121368 125.03714,13.4518296 C125.03714,13.2151866 125.095944,13.0229172 125.213556,12.8750153 C125.331167,12.7271135 125.484059,12.6087938 125.672237,12.5200527 C125.860415,12.4313117 126.069172,12.3691938 126.298514,12.3336974 C126.527856,12.2982009 126.754254,12.280453 126.977716,12.280453 C127.224699,12.280453 127.468739,12.3070749 127.709842,12.3603196 C127.950945,12.4135642 128.171463,12.499346 128.371402,12.6176675 C128.571341,12.7359889 128.735994,12.8927625 128.865367,13.0879929 C128.994739,13.2832233 129.071185,13.5287366 129.094707,13.8245403 L130.594243,13.8245403 C130.55896,13.2684294 130.44135,12.8040247 130.241411,12.4313121 C130.041472,12.0585995 129.773911,11.7628003 129.438719,11.5439056 C129.103527,11.3250109 128.718355,11.1711953 128.283194,11.0824542 C127.848032,10.9937131 127.371714,10.9493433 126.854224,10.9493433 C126.454346,10.9493433 126.051534,10.9996291 125.645775,11.1002024 C125.240016,11.2007756 124.875427,11.3545912 124.551996,11.5616537 C124.228565,11.7687163 123.963944,12.0378936 123.758124,12.3691936 C123.552304,12.7004937 123.449396,13.0968647 123.449396,13.5583183 C123.449396,14.1499256 123.596408,14.6113724 123.890436,14.9426725 C124.184464,15.2739725 124.551994,15.5313178 124.993036,15.7147161 C125.434078,15.8981144 125.913337,16.040098 126.430826,16.1406712 C126.948315,16.2412445 127.427574,16.3536482 127.868616,16.4778857 C128.309658,16.6021232 128.677188,16.7648128 128.971216,16.9659593 C129.265244,17.1671057 129.412256,17.4629049 129.412256,17.8533657 C129.412256,18.1373372 129.34169,18.3710186 129.200557,18.5544169 C129.059423,18.7378151 128.880069,18.8768407 128.662488,18.9714979 C128.444907,19.0661551 128.206748,19.1312309 127.948003,19.1667273 C127.689259,19.2022238 127.442279,19.2199717 127.207056,19.2199717 C126.901267,19.2199717 126.604303,19.1903918 126.316156,19.1312311 C126.028008,19.0720704 125.769267,18.9744566 125.539925,18.8383869 C125.310583,18.7023173 125.125348,18.5189218 124.984215,18.2881949 C124.843081,18.0574681 124.766635,17.7764588 124.754874,17.4451588 L124.754874,17.4451588 Z" id="sketchsheets" stroke="#464750" stroke-width="0.25" fill="#464851"></path>
            </g>
        </g>
    </g>
</svg>