<?xml version="1.0" encoding="UTF-8" standalone="no"?>
<svg width="104px" height="22px" viewBox="0 0 104 22" version="1.1" xmlns="http://www.w3.org/2000/svg" xmlns:xlink="http://www.w3.org/1999/xlink">
    <!-- Generator: Sketch 3.6.1 (26313) - http://www.bohemiancoding.com/sketch -->
    <title>Group 3 Copy</title>
    <desc>Created with Sketch.</desc>
    <defs></defs>
    <g id="Page-1" stroke="none" stroke-width="1" fill="none" fill-rule="evenodd">
        <g id="Desktop-HD-Copy-24" transform="translate(-389.000000, -25.000000)">
            <g id="Group-3-Copy" transform="translate(389.000000, 25.000000)">
                <g id="Group" fill="#6B5CED">
                    <path d="M7.14739821,0.234034221 L14.1525512,7.0951589 L13.1889023,7.93269231 L6.37823962,1.26923077 L7.14739821,0.234034221 Z" id="Shape"></path>
                    <path d="M1.40188755,18.2055442 L1.40188755,18.2055442 C1.40188755,19.5278973 2.46661627,20.5957447 3.7871493,20.5957447 L10.699022,20.5957447 C12.0169318,20.5957447 13.0842838,19.5263528 13.0842838,18.2043388 L13.0842838,7.9509672 C13.0842838,8.02890699 13.1443159,8.08887044 13.2201432,8.08887044 L10.193791,8.08887058 C8.0266111,8.08887069 6.26847323,6.32692526 6.2684731,4.15744901 L6.26847293,1.26518376 C6.26847294,1.34114661 6.3312512,1.40425532 6.41234547,1.40425532 L3.78462005,1.40425532 C2.4689739,1.40425532 1.40188755,2.47412246 1.40188755,3.79445577 L1.40188755,18.2055442 Z M0,18.2055442 L0,18.2055442 L0,3.79445577 C0,1.69887457 1.69443211,0 3.78462005,0 L6.41234547,0 C7.10634049,0 7.67036044,0.566442026 7.67036048,1.26518368 L7.67036065,4.15744893 C7.67036073,5.5506615 8.80013895,6.68461533 10.1937909,6.68461527 L13.2201431,6.68461512 C13.9167823,6.68461509 14.4861713,7.25158023 14.4861713,7.9509672 L14.4861713,18.2043388 C14.4861713,20.3024689 12.7906068,22 10.699022,22 L3.7871493,22 C1.69009898,22 0,20.3011643 0,18.2055442 L0,18.2055442 Z" id="Shape"></path>
                    <rect id="Rectangle-10835" x="6.07484605" y="16.8510638" width="2.33647925" height="2.34042553" rx="18.3829787"></rect>
                </g>
                <path d="M23.0621471,13.7069105 L21.8831227,13.7069105 C21.9016173,14.1531514 21.9940889,14.5319856 22.1605402,14.8434246 C22.3269915,15.1548636 22.5489233,15.4058703 22.8263422,15.5964524 C23.1037611,15.7870345 23.422788,15.9241585 23.7834326,16.0078287 C24.1440772,16.0914989 24.5232106,16.1333333 24.9208444,16.1333333 C25.2814889,16.1333333 25.6444398,16.0984713 26.009708,16.0287461 C26.3749762,15.959021 26.7032503,15.8358418 26.9945402,15.6592047 C27.28583,15.4825677 27.5216325,15.250154 27.7019548,14.9619568 C27.8822771,14.6737595 27.9724369,14.3111942 27.9724369,13.87425 C27.9724369,13.5302726 27.905395,13.2420796 27.7713092,13.0096625 C27.6372234,12.7772453 27.4615274,12.584342 27.2442159,12.4309467 C27.0269045,12.2775514 26.7772312,12.1543721 26.4951887,12.0614053 C26.2131461,11.9684384 25.9241725,11.8894178 25.628259,11.824341 C25.3508401,11.7592642 25.0734254,11.6965125 24.7960065,11.636084 C24.5185876,11.5756556 24.2689143,11.5012832 24.0469792,11.4129647 C23.8250441,11.3246462 23.6424128,11.2130876 23.4990797,11.0782857 C23.3557466,10.9434837 23.2840811,10.7738217 23.2840811,10.5692947 C23.2840811,10.3833609 23.3303169,10.2322921 23.4227898,10.1160835 C23.5152628,9.99987491 23.6354759,9.90690945 23.7834326,9.8371843 C23.9313893,9.76745916 24.0955264,9.71865229 24.2758487,9.69076223 C24.4561709,9.66287217 24.6341787,9.64892736 24.8098774,9.64892736 C25.0040706,9.64892736 25.1959491,9.66984458 25.3855187,9.71167967 C25.5750882,9.75351476 25.7484724,9.82091472 25.9056765,9.91388158 C26.0628805,10.0068484 26.1923407,10.1300277 26.294061,10.283423 C26.3957812,10.4368183 26.4558878,10.6297216 26.4743824,10.8621388 L27.6534067,10.8621388 C27.6256648,10.4251946 27.5331933,10.0603051 27.3759892,9.76745951 C27.2187852,9.4746139 27.0084124,9.24220024 26.7448644,9.07021155 C26.4813165,8.89822286 26.1784721,8.77736776 25.8363221,8.70764262 C25.4941721,8.63791747 25.1196623,8.60305542 24.7127812,8.60305542 C24.3983732,8.60305542 24.081658,8.64256575 23.7626263,8.72158758 C23.4435946,8.80060941 23.1569327,8.92146451 22.902632,9.08415651 C22.6483314,9.24684851 22.4402703,9.45834495 22.2784427,9.71865215 C22.116615,9.97895936 22.0357023,10.2903937 22.0357023,10.6529644 C22.0357023,11.1177987 22.1512918,11.480364 22.3824742,11.7406712 C22.6136566,12.0009784 22.9026303,12.2031783 23.2494039,12.3472769 C23.5961775,12.4913756 23.9729992,12.6029341 24.3798802,12.681956 C24.7867613,12.7609778 25.1635829,12.849295 25.5103565,12.9469102 C25.8571302,13.0445254 26.1461038,13.1723529 26.3772862,13.3303966 C26.6084686,13.4884402 26.7240581,13.7208539 26.7240581,14.0276445 C26.7240581,14.250765 26.6685752,14.4343718 26.5576076,14.5784704 C26.4466401,14.722569 26.3056209,14.8318034 26.1345459,14.9061769 C25.9634709,14.9805504 25.776216,15.0316814 25.5727755,15.0595715 C25.369335,15.0874615 25.1751447,15.1014064 24.9901987,15.1014064 C24.749769,15.1014064 24.5162783,15.078165 24.2897195,15.0316816 C24.0631608,14.9851981 23.8597233,14.9085016 23.679401,14.8015897 C23.4990788,14.6946779 23.353436,14.5505814 23.2424685,14.369296 C23.1315009,14.1880106 23.0713944,13.9672177 23.0621471,13.7069105 L23.0621471,13.7069105 Z M29.3456535,6.02323799 L29.3456535,15.9799388 L30.5246779,15.9799388 L30.5246779,13.2467268 L31.6343479,12.2147998 L34.0894928,15.9799388 L35.5875473,15.9799388 L32.5359548,11.3920472 L35.3794841,8.77039493 L33.7982044,8.77039493 L30.5246779,11.9219557 L30.5246779,6.02323799 L29.3456535,6.02323799 Z M41.4549274,11.6848914 L37.3352775,11.6848914 C37.3537721,11.4059908 37.4138786,11.1433634 37.5155989,10.8970012 C37.6173192,10.650639 37.7560265,10.4344943 37.9317251,10.2485606 C38.1074238,10.0626269 38.3177966,9.91620627 38.56285,9.80929438 C38.8079033,9.7023825 39.0830062,9.64892736 39.388167,9.64892736 C39.6840805,9.64892736 39.9545599,9.7023825 40.1996132,9.80929438 C40.4446666,9.91620627 40.6573512,10.0603027 40.8376735,10.2415881 C41.0179957,10.4228735 41.1613267,10.6390182 41.2676706,10.8900287 C41.3740145,11.1410392 41.4364328,11.4059908 41.4549274,11.6848914 L41.4549274,11.6848914 Z M42.5923392,13.6929655 L41.4271857,13.6929655 C41.3254654,14.1670965 41.1150926,14.5203652 40.7960608,14.7527824 C40.4770291,14.9851995 40.0678424,15.1014064 39.5684884,15.1014064 C39.180102,15.1014064 38.8425807,15.0363305 38.5559145,14.9061769 C38.2692483,14.7760233 38.0334458,14.6017131 37.8484999,14.383241 C37.663554,14.1647688 37.5294702,13.9137621 37.4462445,13.6302132 C37.3630189,13.3466643 37.3260302,13.0468506 37.3352775,12.7307633 L42.7033062,12.7307633 C42.7218008,12.2938191 42.6825003,11.83364 42.5854037,11.3502124 C42.4883071,10.8667847 42.3126111,10.4205505 42.0583105,10.0114963 C41.8040098,9.60244211 41.4664886,9.26544231 41.0457366,9.00048676 C40.6249846,8.73553121 40.0955848,8.60305542 39.4575214,8.60305542 C38.9674147,8.60305542 38.5166158,8.69602089 38.1051111,8.88195461 C37.6936064,9.06788832 37.3375908,9.32819162 37.0370537,9.66287231 C36.7365166,9.99755301 36.5030258,10.3926562 36.3365745,10.8481938 C36.1701232,11.3037314 36.0868988,11.805745 36.0868988,12.3542494 C36.1053934,12.9027539 36.186306,13.4094157 36.3296391,13.87425 C36.4729722,14.3390843 36.6879686,14.7388358 36.9746348,15.0735164 C37.261301,15.4081971 37.6150047,15.6685004 38.0357567,15.8544342 C38.4565087,16.0403679 38.9535434,16.1333333 39.5268758,16.1333333 C40.3406378,16.1333333 41.0156804,15.9288093 41.5520235,15.5197551 C42.0883667,15.110701 42.4351351,14.5017772 42.5923392,13.6929655 L42.5923392,13.6929655 Z M45.5607064,8.77039493 L45.5607064,6.60892627 L44.381682,6.60892627 L44.381682,8.77039493 L43.161045,8.77039493 L43.161045,9.81626686 L44.381682,9.81626686 L44.381682,14.4041584 C44.381682,14.7388391 44.4140471,15.0084389 44.4787782,15.212966 C44.5435092,15.4174931 44.6429162,15.5755344 44.777002,15.6870946 C44.9110878,15.7986549 45.0867838,15.8753514 45.3040952,15.9171865 C45.5214067,15.9590216 45.7826389,15.9799388 46.0877997,15.9799388 L46.9894066,15.9799388 L46.9894066,14.9340669 L46.4484424,14.9340669 C46.2634965,14.9340669 46.1132302,14.9270944 45.997639,14.9131494 C45.8820478,14.8992044 45.791888,14.8689906 45.7271569,14.8225072 C45.6624258,14.7760237 45.6185019,14.7109479 45.5953836,14.6272778 C45.5722654,14.5436076 45.5607064,14.432049 45.5607064,14.2925987 L45.5607064,9.81626686 L46.9894066,9.81626686 L46.9894066,8.77039493 L45.5607064,8.77039493 Z M53.1619459,11.0852581 L54.382583,11.0852581 C54.3363465,10.6576106 54.2253806,10.2880729 54.049682,9.97663389 C53.8739833,9.66519492 53.6497398,9.40721575 53.3769445,9.20268866 C53.1041493,8.99816158 52.7897459,8.8470927 52.433725,8.74947749 C52.0777041,8.65186229 51.6962589,8.60305542 51.2893778,8.60305542 C50.7252927,8.60305542 50.2305698,8.7029933 49.8051942,8.90287204 C49.3798186,9.10275079 49.0261148,9.37699891 48.7440722,9.72562463 C48.4620297,10.0742504 48.2516569,10.4832984 48.1129474,10.952781 C47.974238,11.4222637 47.9048843,11.9266013 47.9048843,12.4658091 C47.9048843,13.0050169 47.9765498,13.500058 48.1198829,13.9509472 C48.263216,14.4018365 48.4759006,14.7899673 48.7579431,15.1153513 C49.0399857,15.4407353 49.3913776,15.6917421 49.8121296,15.8683791 C50.2328816,16.0450161 50.7160456,16.1333333 51.2616361,16.1333333 C52.1771184,16.1333333 52.9007085,15.8916231 53.432428,15.4081955 C53.9641475,14.9247678 54.2947334,14.2368234 54.4241956,13.3443415 L53.2174294,13.3443415 C53.1434511,13.9021427 52.9423254,14.3344321 52.6140464,14.6412227 C52.2857674,14.9480133 51.8303449,15.1014064 51.2477652,15.1014064 C50.8778733,15.1014064 50.5588464,15.027034 50.2906748,14.878287 C50.0225032,14.72954 49.805195,14.5319884 49.6387437,14.2856263 C49.4722924,14.0392641 49.3497675,13.7580435 49.2711655,13.4419562 C49.1925635,13.1258689 49.1532631,12.8004898 49.1532631,12.4658091 C49.1532631,12.1032383 49.1902517,11.7522937 49.2642301,11.4129647 C49.3382084,11.0736356 49.4607333,10.773822 49.6318082,10.5135148 C49.8028832,10.2532076 50.0317504,10.0440353 50.3184166,9.88599166 C50.6050827,9.727948 50.9610983,9.64892736 51.3864739,9.64892736 C51.8858279,9.64892736 52.2834557,9.77443073 52.5793692,10.0254413 C52.8752827,10.2764518 53.069473,10.6297205 53.1619459,11.0852581 L53.1619459,11.0852581 Z M55.7419287,6.02323799 L55.7419287,15.9799388 L56.9209531,15.9799388 L56.9209531,11.9080107 C56.9209531,11.5826267 56.9648771,11.2828131 57.0527264,11.0085609 C57.1405757,10.7343086 57.2723477,10.4949226 57.4480463,10.2903955 C57.623745,10.0858684 57.843365,9.92782709 58.1069129,9.81626686 C58.3704608,9.70470663 58.6825524,9.64892736 59.043197,9.64892736 C59.4963145,9.64892736 59.8523301,9.77907901 60.1112543,10.0393862 C60.3701786,10.2996934 60.4996389,10.6529622 60.4996389,11.0992031 L60.4996389,15.9799388 L61.6786632,15.9799388 L61.6786632,11.2386527 C61.6786632,10.8481919 61.6393628,10.492599 61.5607608,10.1718633 C61.4821588,9.85112766 61.3457632,9.5745554 61.15157,9.34213826 C60.9573768,9.10972111 60.7030799,8.92843845 60.3886719,8.79828485 C60.0742638,8.66813125 59.6812596,8.60305542 59.2096475,8.60305542 C58.9969597,8.60305542 58.7773397,8.62629679 58.5507809,8.67278022 C58.3242221,8.71926365 58.1069139,8.79131188 57.8988498,8.88892708 C57.6907856,8.98654229 57.5035307,9.11204566 57.3370793,9.26544098 C57.170628,9.4188363 57.0411678,9.60709136 56.9486948,9.83021182 L56.9209531,9.83021182 L56.9209531,6.02323799 L55.7419287,6.02323799 Z M64.1754207,13.7069105 L62.9963964,13.7069105 C63.014891,14.1531514 63.1073625,14.5319856 63.2738139,14.8434246 C63.4402652,15.1548636 63.662197,15.4058703 63.9396159,15.5964524 C64.2170348,15.7870345 64.5360617,15.9241585 64.8967062,16.0078287 C65.2573508,16.0914989 65.6364843,16.1333333 66.034118,16.1333333 C66.3947625,16.1333333 66.7577135,16.0984713 67.1229817,16.0287461 C67.4882499,15.959021 67.816524,15.8358418 68.1078138,15.6592047 C68.3991036,15.4825677 68.6349062,15.250154 68.8152284,14.9619568 C68.9955507,14.6737595 69.0857105,14.3111942 69.0857105,13.87425 C69.0857105,13.5302726 69.0186686,13.2420796 68.8845828,13.0096625 C68.750497,12.7772453 68.574801,12.584342 68.3574896,12.4309467 C68.1401781,12.2775514 67.8905048,12.1543721 67.6084623,12.0614053 C67.3264198,11.9684384 67.0374461,11.8894178 66.7415326,11.824341 C66.4641137,11.7592642 66.186699,11.6965125 65.9092801,11.636084 C65.6318612,11.5756556 65.382188,11.5012832 65.1602529,11.4129647 C64.9383178,11.3246462 64.7556864,11.2130876 64.6123533,11.0782857 C64.4690202,10.9434837 64.3973547,10.7738217 64.3973547,10.5692947 C64.3973547,10.3833609 64.4435905,10.2322921 64.5360635,10.1160835 C64.6285365,9.99987491 64.7487495,9.90690945 64.8967062,9.8371843 C65.044663,9.76745916 65.2088,9.71865229 65.3891223,9.69076223 C65.5694446,9.66287217 65.7474524,9.64892736 65.923151,9.64892736 C66.1173442,9.64892736 66.3092227,9.66984458 66.4987923,9.71167967 C66.6883619,9.75351476 66.8617461,9.82091472 67.0189501,9.91388158 C67.1761542,10.0068484 67.3056144,10.1300277 67.4073346,10.283423 C67.5090549,10.4368183 67.5691614,10.6297216 67.587656,10.8621388 L68.7666804,10.8621388 C68.7389385,10.4251946 68.6464669,10.0603051 68.4892629,9.76745951 C68.3320588,9.4746139 68.121686,9.24220024 67.8581381,9.07021155 C67.5945901,8.89822286 67.2917457,8.77736776 66.9495957,8.70764262 C66.6074458,8.63791747 66.2329359,8.60305542 65.8260549,8.60305542 C65.5116468,8.60305542 65.1949316,8.64256575 64.8758999,8.72158758 C64.5568682,8.80060941 64.2702063,8.92146451 64.0159057,9.08415651 C63.761605,9.24684851 63.553544,9.45834495 63.3917163,9.71865215 C63.2298886,9.97895936 63.148976,10.2903937 63.148976,10.6529644 C63.148976,11.1177987 63.2645655,11.480364 63.4957479,11.7406712 C63.7269303,12.0009784 64.0159039,12.2031783 64.3626776,12.3472769 C64.7094512,12.4913756 65.0862728,12.6029341 65.4931539,12.681956 C65.9000349,12.7609778 66.2768566,12.849295 66.6236302,12.9469102 C66.9704038,13.0445254 67.2593775,13.1723529 67.4905599,13.3303966 C67.7217423,13.4884402 67.8373318,13.7208539 67.8373318,14.0276445 C67.8373318,14.250765 67.7818488,14.4343718 67.6708813,14.5784704 C67.5599137,14.722569 67.4188945,14.8318034 67.2478196,14.9061769 C67.0767446,14.9805504 66.8894896,15.0316814 66.6860491,15.0595715 C66.4826086,15.0874615 66.2884183,15.1014064 66.1034724,15.1014064 C65.8630427,15.1014064 65.6295519,15.078165 65.4029932,15.0316816 C65.1764344,14.9851981 64.972997,14.9085016 64.7926747,14.8015897 C64.6123524,14.6946779 64.4667097,14.5505814 64.3557421,14.369296 C64.2447746,14.1880106 64.184668,13.9672177 64.1754207,13.7069105 L64.1754207,13.7069105 Z M70.3895728,6.02323799 L70.3895728,15.9799388 L71.5685971,15.9799388 L71.5685971,11.9080107 C71.5685971,11.5826267 71.6125211,11.2828131 71.7003705,11.0085609 C71.7882198,10.7343086 71.9199918,10.4949226 72.0956904,10.2903955 C72.271389,10.0858684 72.491009,9.92782709 72.754557,9.81626686 C73.0181049,9.70470663 73.3301965,9.64892736 73.690841,9.64892736 C74.1439585,9.64892736 74.4999741,9.77907901 74.7588984,10.0393862 C75.0178227,10.2996934 75.1472829,10.6529622 75.1472829,11.0992031 L75.1472829,15.9799388 L76.3263073,15.9799388 L76.3263073,11.2386527 C76.3263073,10.8481919 76.2870069,10.492599 76.2084048,10.1718633 C76.1298028,9.85112766 75.9934073,9.5745554 75.799214,9.34213826 C75.6050208,9.10972111 75.350724,8.92843845 75.0363159,8.79828485 C74.7219078,8.66813125 74.3289036,8.60305542 73.8572915,8.60305542 C73.6446037,8.60305542 73.4249837,8.62629679 73.198425,8.67278022 C72.9718662,8.71926365 72.754558,8.79131188 72.5464938,8.88892708 C72.3384297,8.98654229 72.1511747,9.11204566 71.9847234,9.26544098 C71.8182721,9.4188363 71.6888119,9.60709136 71.5963389,9.83021182 L71.5685971,9.83021182 L71.5685971,6.02323799 L70.3895728,6.02323799 Z M83.0814234,11.6848914 L78.9617735,11.6848914 C78.9802681,11.4059908 79.0403747,11.1433634 79.1420949,10.8970012 C79.2438152,10.650639 79.3825225,10.4344943 79.5582212,10.2485606 C79.7339198,10.0626269 79.9442926,9.91620627 80.189346,9.80929438 C80.4343993,9.7023825 80.7095023,9.64892736 81.014663,9.64892736 C81.3105765,9.64892736 81.5810559,9.7023825 81.8261092,9.80929438 C82.0711626,9.91620627 82.2838472,10.0603027 82.4641695,10.2415881 C82.6444918,10.4228735 82.7878227,10.6390182 82.8941666,10.8900287 C83.0005105,11.1410392 83.0629288,11.4059908 83.0814234,11.6848914 L83.0814234,11.6848914 Z M84.2188352,13.6929655 L83.0536817,13.6929655 C82.9519614,14.1670965 82.7415886,14.5203652 82.4225569,14.7527824 C82.1035251,14.9851995 81.6943384,15.1014064 81.1949844,15.1014064 C80.806598,15.1014064 80.4690767,15.0363305 80.1824105,14.9061769 C79.8957444,14.7760233 79.6599418,14.6017131 79.4749959,14.383241 C79.29005,14.1647688 79.1559662,13.9137621 79.0727405,13.6302132 C78.9895149,13.3466643 78.9525262,13.0468506 78.9617735,12.7307633 L84.3298022,12.7307633 C84.3482968,12.2938191 84.3089964,11.83364 84.2118997,11.3502124 C84.1148031,10.8667847 83.9391071,10.4205505 83.6848065,10.0114963 C83.4305058,9.60244211 83.0929846,9.26544231 82.6722326,9.00048676 C82.2514806,8.73553121 81.7220809,8.60305542 81.0840174,8.60305542 C80.5939107,8.60305542 80.1431118,8.69602089 79.7316071,8.88195461 C79.3201024,9.06788832 78.9640869,9.32819162 78.6635497,9.66287231 C78.3630126,9.99755301 78.1295219,10.3926562 77.9630705,10.8481938 C77.7966192,11.3037314 77.7133948,11.805745 77.7133948,12.3542494 C77.7318894,12.9027539 77.812802,13.4094157 77.9561351,13.87425 C78.0994682,14.3390843 78.3144646,14.7388358 78.6011308,15.0735164 C78.887797,15.4081971 79.2415008,15.6685004 79.6622527,15.8544342 C80.0830047,16.0403679 80.5800394,16.1333333 81.1533718,16.1333333 C81.9671339,16.1333333 82.6421764,15.9288093 83.1785196,15.5197551 C83.7148627,15.110701 84.0616311,14.5017772 84.2188352,13.6929655 L84.2188352,13.6929655 Z M90.5300833,11.6848914 L86.4104334,11.6848914 C86.428928,11.4059908 86.4890346,11.1433634 86.5907548,10.8970012 C86.6924751,10.650639 86.8311824,10.4344943 87.0068811,10.2485606 C87.1825797,10.0626269 87.3929525,9.91620627 87.6380059,9.80929438 C87.8830592,9.7023825 88.1581622,9.64892736 88.4633229,9.64892736 C88.7592364,9.64892736 89.0297158,9.7023825 89.2747691,9.80929438 C89.5198225,9.91620627 89.7325071,10.0603027 89.9128294,10.2415881 C90.0931517,10.4228735 90.2364826,10.6390182 90.3428265,10.8900287 C90.4491704,11.1410392 90.5115887,11.4059908 90.5300833,11.6848914 L90.5300833,11.6848914 Z M91.6674951,13.6929655 L90.5023416,13.6929655 C90.4006213,14.1670965 90.1902485,14.5203652 89.8712168,14.7527824 C89.552185,14.9851995 89.1429983,15.1014064 88.6436443,15.1014064 C88.2552579,15.1014064 87.9177366,15.0363305 87.6310704,14.9061769 C87.3444043,14.7760233 87.1086017,14.6017131 86.9236558,14.383241 C86.7387099,14.1647688 86.6046261,13.9137621 86.5214004,13.6302132 C86.4381748,13.3466643 86.4011861,13.0468506 86.4104334,12.7307633 L91.7784621,12.7307633 C91.7969567,12.2938191 91.7576563,11.83364 91.6605596,11.3502124 C91.563463,10.8667847 91.387767,10.4205505 91.1334664,10.0114963 C90.8791657,9.60244211 90.5416445,9.26544231 90.1208925,9.00048676 C89.7001405,8.73553121 89.1707408,8.60305542 88.5326773,8.60305542 C88.0425706,8.60305542 87.5917717,8.69602089 87.180267,8.88195461 C86.7687623,9.06788832 86.4127468,9.32819162 86.1122096,9.66287231 C85.8116725,9.99755301 85.5781818,10.3926562 85.4117304,10.8481938 C85.2452791,11.3037314 85.1620547,11.805745 85.1620547,12.3542494 C85.1805493,12.9027539 85.2614619,13.4094157 85.404795,13.87425 C85.5481281,14.3390843 85.7631245,14.7388358 86.0497907,15.0735164 C86.3364569,15.4081971 86.6901607,15.6685004 87.1109126,15.8544342 C87.5316646,16.0403679 88.0286993,16.1333333 88.6020317,16.1333333 C89.4157938,16.1333333 90.0908363,15.9288093 90.6271795,15.5197551 C91.1635226,15.110701 91.510291,14.5017772 91.6674951,13.6929655 L91.6674951,13.6929655 Z M94.6358623,8.77039493 L94.6358623,6.60892627 L93.456838,6.60892627 L93.456838,8.77039493 L92.236201,8.77039493 L92.236201,9.81626686 L93.456838,9.81626686 L93.456838,14.4041584 C93.456838,14.7388391 93.489203,15.0084389 93.5539341,15.212966 C93.6186652,15.4174931 93.7180721,15.5755344 93.8521579,15.6870946 C93.9862437,15.7986549 94.1619397,15.8753514 94.3792512,15.9171865 C94.5965626,15.9590216 94.8577948,15.9799388 95.1629556,15.9799388 L96.0645625,15.9799388 L96.0645625,14.9340669 L95.5235983,14.9340669 C95.3386524,14.9340669 95.1883861,14.9270944 95.0727949,14.9131494 C94.9572037,14.8992044 94.8670439,14.8689906 94.8023128,14.8225072 C94.7375818,14.7760237 94.6936578,14.7109479 94.6705395,14.6272778 C94.6474213,14.5436076 94.6358623,14.432049 94.6358623,14.2925987 L94.6358623,9.81626686 L96.0645625,9.81626686 L96.0645625,8.77039493 L94.6358623,8.77039493 Z M98.0897102,13.7069105 L96.9106859,13.7069105 C96.9291804,14.1531514 97.021652,14.5319856 97.1881034,14.8434246 C97.3545547,15.1548636 97.5764865,15.4058703 97.8539054,15.5964524 C98.1313242,15.7870345 98.4503512,15.9241585 98.8109957,16.0078287 C99.1716403,16.0914989 99.5507737,16.1333333 99.9484075,16.1333333 C100.309052,16.1333333 100.672003,16.0984713 101.037271,16.0287461 C101.402539,15.959021 101.730813,15.8358418 102.022103,15.6592047 C102.313393,15.4825677 102.549196,15.250154 102.729518,14.9619568 C102.90984,14.6737595 103,14.3111942 103,13.87425 C103,13.5302726 102.932958,13.2420796 102.798872,13.0096625 C102.664787,12.7772453 102.489091,12.584342 102.271779,12.4309467 C102.054468,12.2775514 101.804794,12.1543721 101.522752,12.0614053 C101.240709,11.9684384 100.951736,11.8894178 100.655822,11.824341 C100.378403,11.7592642 100.100989,11.6965125 99.8235696,11.636084 C99.5461507,11.5756556 99.2964775,11.5012832 99.0745424,11.4129647 C98.8526073,11.3246462 98.6699759,11.2130876 98.5266428,11.0782857 C98.3833097,10.9434837 98.3116442,10.7738217 98.3116442,10.5692947 C98.3116442,10.3833609 98.35788,10.2322921 98.450353,10.1160835 C98.5428259,9.99987491 98.663039,9.90690945 98.8109957,9.8371843 C98.9589525,9.76745916 99.1230895,9.71865229 99.3034118,9.69076223 C99.4837341,9.66287217 99.6617419,9.64892736 99.8374405,9.64892736 C100.031634,9.64892736 100.223512,9.66984458 100.413082,9.71167967 C100.602651,9.75351476 100.776036,9.82091472 100.93324,9.91388158 C101.090444,10.0068484 101.219904,10.1300277 101.321624,10.283423 C101.423344,10.4368183 101.483451,10.6297216 101.501945,10.8621388 L102.68097,10.8621388 C102.653228,10.4251946 102.560756,10.0603051 102.403552,9.76745951 C102.246348,9.4746139 102.035976,9.24220024 101.772428,9.07021155 C101.50888,8.89822286 101.206035,8.77736776 100.863885,8.70764262 C100.521735,8.63791747 100.147225,8.60305542 99.7403444,8.60305542 C99.4259363,8.60305542 99.1092211,8.64256575 98.7901894,8.72158758 C98.4711577,8.80060941 98.1844958,8.92146451 97.9301952,9.08415651 C97.6758945,9.24684851 97.4678335,9.45834495 97.3060058,9.71865215 C97.1441781,9.97895936 97.0632655,10.2903937 97.0632655,10.6529644 C97.0632655,11.1177987 97.1788549,11.480364 97.4100374,11.7406712 C97.6412198,12.0009784 97.9301934,12.2031783 98.276967,12.3472769 C98.6237407,12.4913756 99.0005623,12.6029341 99.4074434,12.681956 C99.8143244,12.7609778 100.191146,12.849295 100.53792,12.9469102 C100.884693,13.0445254 101.173667,13.1723529 101.404849,13.3303966 C101.636032,13.4884402 101.751621,13.7208539 101.751621,14.0276445 C101.751621,14.250765 101.696138,14.4343718 101.585171,14.5784704 C101.474203,14.722569 101.333184,14.8318034 101.162109,14.9061769 C100.991034,14.9805504 100.803779,15.0316814 100.600339,15.0595715 C100.396898,15.0874615 100.202708,15.1014064 100.017762,15.1014064 C99.7773322,15.1014064 99.5438414,15.078165 99.3172827,15.0316816 C99.0907239,14.9851981 98.8872864,14.9085016 98.7069642,14.8015897 C98.5266419,14.6946779 98.3809992,14.5505814 98.2700316,14.369296 C98.1590641,14.1880106 98.0989575,13.9672177 98.0897102,13.7069105 L98.0897102,13.7069105 Z" id="sketchsheets" stroke="#464750" stroke-width="0.25" fill="#464851"></path>
            </g>
        </g>
    </g>
</svg>