<?xml version="1.0" encoding="UTF-8" standalone="no"?>
<svg width="131px" height="27px" viewBox="0 0 131 27" version="1.1" xmlns="http://www.w3.org/2000/svg" xmlns:xlink="http://www.w3.org/1999/xlink">
    <!-- Generator: Sketch 3.6.1 (26313) - http://www.bohemiancoding.com/sketch -->
    <title>Group 3 Copy 2</title>
    <desc>Created with Sketch.</desc>
    <defs>
        <linearGradient x1="0%" y1="100%" x2="53.1908098%" y2="-20.576449%" id="linearGradient-1">
            <stop stop-color="#6B5CED" offset="0%"></stop>
            <stop stop-color="#946FFF" offset="100%"></stop>
        </linearGradient>
    </defs>
    <g id="Page-1" stroke="none" stroke-width="1" fill="none" fill-rule="evenodd">
        <g id="Desktop-HD-Copy-22" transform="translate(-438.000000, -43.000000)">
            <g id="Group-3-Copy-2" transform="translate(436.000000, 40.000000)">
                <g id="Group" transform="translate(2.000000, 3.000000)">
                    <path d="M8.82689096,0.287223817 L17.4781119,8.70769501 L16.2880252,9.73557692 L7.8769958,1.55769231 L8.82689096,0.287223817 Z" id="Shape" fill="#8769F9"></path>
                    <path d="M1.73130252,22.3431679 L1.73130252,22.3431679 C1.73130252,23.9660558 3.04622076,25.2765957 4.67705212,25.2765957 L13.2130739,25.2765957 C14.8406657,25.2765957 16.1588235,23.9641603 16.1588235,22.3416886 L16.1588235,9.7580052 C16.1588235,9.85365858 16.232962,9.92725009 16.3266071,9.92725009 L12.5891239,9.92725026 C9.91270094,9.92725039 7.74143655,7.76486282 7.74143639,5.10232379 L7.74143618,1.55272552 C7.74143619,1.64595266 7.81896606,1.72340426 7.91911583,1.72340426 L4.67392854,1.72340426 C3.0491324,1.72340426 1.73130252,3.03642302 1.73130252,4.65683208 L1.73130252,22.3431679 Z M0,22.3431679 L0,22.3431679 L0,4.65683208 C0,2.08498242 2.09258909,0 4.67392854,0 L7.91911583,0 C8.77618552,0 9.47273865,0.69517885 9.4727387,1.55272542 L9.47273891,5.10232369 C9.47273901,6.81217548 10.8679921,8.20384609 12.5891238,8.20384601 L16.326607,8.20384583 C17.1869422,8.20384579 17.8901261,8.89966664 17.8901261,9.7580052 L17.8901261,22.3416886 C17.8901261,24.9166663 15.7961385,27 13.2130739,27 L4.67705212,27 C2.08723776,27 0,24.9150653 0,22.3431679 L0,22.3431679 Z" id="Shape" fill="url(#linearGradient-1)"></path>
                    <rect id="Rectangle-10835" fill="#7862F3" x="7.50231092" y="20.6808511" width="2.8855042" height="2.87234043" rx="18.3829787"></rect>
                </g>
                <path d="M39.1054688,20.5107422 C39.1054688,21.653326 38.6923869,22.5498014 37.8662109,23.2001953 C37.0400349,23.8505892 35.9003979,24.1757812 34.4472656,24.1757812 C32.9941334,24.1757812 31.8046921,23.9501976 30.8789062,23.4990234 L30.8789062,21.5126953 C31.4648467,21.7880873 32.087399,22.004882 32.746582,22.1630859 C33.405765,22.3212899 34.0195284,22.4003906 34.5878906,22.4003906 C35.419926,22.4003906 36.0336894,22.2421891 36.4291992,21.9257812 C36.824709,21.6093734 37.0224609,21.184573 37.0224609,20.6513672 C37.0224609,20.170896 36.8408221,19.7636735 36.4775391,19.4296875 C36.114256,19.0957015 35.3642635,18.7001976 34.2275391,18.2431641 C33.0556582,17.7685523 32.2294946,17.2265655 31.7490234,16.6171875 C31.2685523,16.0078095 31.0283203,15.2753949 31.0283203,14.4199219 C31.0283203,13.3476509 31.4091759,12.5039093 32.1708984,11.8886719 C32.932621,11.2734344 33.9550717,10.9658203 35.2382812,10.9658203 C36.4687562,10.9658203 37.6933533,11.2353489 38.9121094,11.7744141 L38.2441406,13.4882812 C37.1015568,13.0078101 36.0820357,12.7675781 35.1855469,12.7675781 C34.505856,12.7675781 33.9902361,12.9155259 33.6386719,13.2114258 C33.2871076,13.5073257 33.1113281,13.8984351 33.1113281,14.3847656 C33.1113281,14.7187517 33.1816399,15.0043933 33.3222656,15.2416992 C33.4628913,15.4790051 33.6943343,15.7031239 34.0166016,15.9140625 C34.3388688,16.1250011 34.9189411,16.4033186 35.7568359,16.7490234 C36.7002,17.1416035 37.3915994,17.5078108 37.8310547,17.8476562 C38.27051,18.1875017 38.5927724,18.5712869 38.7978516,18.9990234 C39.0029307,19.42676 39.1054688,19.9306612 39.1054688,20.5107422 L39.1054688,20.5107422 Z M42.3681641,18.8671875 L43.5371094,17.4082031 L46.4726562,14.2792969 L48.8544922,14.2792969 L44.9433594,18.4541016 L49.1005859,24 L46.6748047,24 L43.5546875,19.7373047 L42.4208984,20.6689453 L42.4208984,24 L40.3730469,24 L40.3730469,10.3242188 L42.4208984,10.3242188 L42.4208984,16.9951172 L42.3154297,18.8671875 L42.3681641,18.8671875 Z M53.5498047,24.1757812 C52.0380784,24.1757812 50.8559613,23.7348677 50.003418,22.8530273 C49.1508746,21.971187 48.7246094,20.7568437 48.7246094,19.2099609 C48.7246094,17.6220624 49.1201132,16.374028 49.9111328,15.4658203 C50.7021524,14.5576126 51.7890556,14.1035156 53.171875,14.1035156 C54.4550845,14.1035156 55.4687463,14.4931602 56.2128906,15.2724609 C56.957035,16.0517617 57.3291016,17.1240166 57.3291016,18.4892578 L57.3291016,19.6054688 L50.8515625,19.6054688 C50.8808595,20.5488328 51.1357398,21.2739232 51.6162109,21.7807617 C52.0966821,22.2876002 52.7734331,22.5410156 53.6464844,22.5410156 C54.220706,22.5410156 54.7553686,22.4868169 55.2504883,22.378418 C55.7456079,22.270019 56.2773409,22.089845 56.8457031,21.8378906 L56.8457031,23.5166016 C56.3417944,23.7568371 55.8320338,23.9267573 55.3164062,24.0263672 C54.8007787,24.1259771 54.2119174,24.1757812 53.5498047,24.1757812 L53.5498047,24.1757812 Z M53.171875,15.6679688 C52.5156217,15.6679688 51.9897481,15.8759745 51.5942383,16.2919922 C51.1987285,16.7080099 50.962891,17.3144491 50.8867188,18.1113281 L55.2988281,18.1113281 C55.2871093,17.3085897 55.0937519,16.7006857 54.71875,16.2875977 C54.3437481,15.8745097 53.8281283,15.6679688 53.171875,15.6679688 L53.171875,15.6679688 Z M62.296875,22.5058594 C62.8007838,22.5058594 63.304685,22.4267586 63.8085938,22.2685547 L63.8085938,23.8242188 C63.580077,23.9238286 63.2856463,24.0073239 62.925293,24.074707 C62.5649396,24.1420902 62.1914082,24.1757812 61.8046875,24.1757812 C59.8476465,24.1757812 58.8691406,23.1445416 58.8691406,21.0820312 L58.8691406,15.84375 L57.5419922,15.84375 L57.5419922,14.9296875 L58.9658203,14.1738281 L59.6689453,12.1171875 L60.9433594,12.1171875 L60.9433594,14.2792969 L63.7119141,14.2792969 L63.7119141,15.84375 L60.9433594,15.84375 L60.9433594,21.046875 C60.9433594,21.5449244 61.0678698,21.9125965 61.3168945,22.1499023 C61.5659192,22.3872082 61.8925761,22.5058594 62.296875,22.5058594 L62.296875,22.5058594 Z M68.6708984,24.1757812 C67.200188,24.1757812 66.0825234,23.7465863 65.3178711,22.8881836 C64.5532188,22.0297809 64.1708984,20.7978596 64.1708984,19.1923828 C64.1708984,17.557609 64.5707968,16.3007856 65.3706055,15.421875 C66.1704142,14.5429644 67.3261643,14.1035156 68.8378906,14.1035156 C69.8632864,14.1035156 70.7861287,14.2939434 71.6064453,14.6748047 L70.9824219,16.3359375 C70.1093706,15.9960921 69.3886747,15.8261719 68.8203125,15.8261719 C67.1386635,15.8261719 66.2978516,16.9423717 66.2978516,19.1748047 C66.2978516,20.2646539 66.5073221,21.0834934 66.9262695,21.6313477 C67.3452169,22.179202 67.9589803,22.453125 68.7675781,22.453125 C69.6875046,22.453125 70.5576131,22.2246117 71.3779297,21.7675781 L71.3779297,23.5693359 C71.0087872,23.7861339 70.6147482,23.9414058 70.1958008,24.0351562 C69.7768534,24.1289067 69.2685577,24.1757812 68.6708984,24.1757812 L68.6708984,24.1757812 Z M81.2148438,24 L79.140625,24 L79.140625,18.0234375 C79.140625,17.2734337 78.9897476,16.713869 78.6879883,16.3447266 C78.386229,15.9755841 77.9072298,15.7910156 77.2509766,15.7910156 C76.3837847,15.7910156 75.7465841,16.0502904 75.3393555,16.5688477 C74.9321269,17.0874049 74.7285156,17.9560486 74.7285156,19.1748047 L74.7285156,24 L72.6630859,24 L72.6630859,10.3242188 L74.7285156,10.3242188 L74.7285156,13.7958984 C74.7285156,14.3525418 74.6933597,14.9472625 74.6230469,15.5800781 L74.7548828,15.5800781 C75.0361342,15.1113258 75.4272436,14.7480482 75.9282227,14.4902344 C76.4292017,14.2324206 77.0136685,14.1035156 77.6816406,14.1035156 C80.0371212,14.1035156 81.2148438,15.2900272 81.2148438,17.6630859 L81.2148438,24 Z M89.6191406,21.2314453 C89.6191406,22.1806688 89.273441,22.9086889 88.5820312,23.4155273 C87.8906215,23.9223658 86.9003971,24.1757812 85.6113281,24.1757812 C84.3163998,24.1757812 83.2763711,23.9794942 82.4912109,23.5869141 L82.4912109,21.8027344 C83.6337948,22.3300808 84.6972607,22.59375 85.6816406,22.59375 C86.9531314,22.59375 87.5888672,22.2099648 87.5888672,21.4423828 C87.5888672,21.1962878 87.5185554,20.9912118 87.3779297,20.8271484 C87.237304,20.6630851 87.005861,20.4931649 86.6835938,20.3173828 C86.3613265,20.1416007 85.9130888,19.9423839 85.3388672,19.7197266 C84.219721,19.2861306 83.4624043,18.8525412 83.0668945,18.4189453 C82.6713847,17.9853494 82.4736328,17.422855 82.4736328,16.7314453 C82.4736328,15.8994099 82.8090787,15.2534203 83.4799805,14.793457 C84.1508823,14.3334938 85.0634708,14.1035156 86.2177734,14.1035156 C87.3603573,14.1035156 88.4414012,14.3349586 89.4609375,14.7978516 L88.7929688,16.3535156 C87.7441354,15.9199197 86.8623083,15.703125 86.1474609,15.703125 C85.0576117,15.703125 84.5126953,16.0136688 84.5126953,16.6347656 C84.5126953,16.9394546 84.6547837,17.1972646 84.9389648,17.4082031 C85.223146,17.6191417 85.8427687,17.9091778 86.7978516,18.2783203 C87.60059,18.5888687 88.1835919,18.8730456 88.546875,19.1308594 C88.9101581,19.3886732 89.1796866,19.6860335 89.3554688,20.0229492 C89.5312509,20.359865 89.6191406,20.762693 89.6191406,21.2314453 L89.6191406,21.2314453 Z M99.4033203,24 L97.3291016,24 L97.3291016,18.0234375 C97.3291016,17.2734337 97.1782242,16.713869 96.8764648,16.3447266 C96.5747055,15.9755841 96.0957064,15.7910156 95.4394531,15.7910156 C94.5722613,15.7910156 93.9350606,16.0502904 93.527832,16.5688477 C93.1206034,17.0874049 92.9169922,17.9560486 92.9169922,19.1748047 L92.9169922,24 L90.8515625,24 L90.8515625,10.3242188 L92.9169922,10.3242188 L92.9169922,13.7958984 C92.9169922,14.3525418 92.8818363,14.9472625 92.8115234,15.5800781 L92.9433594,15.5800781 C93.2246108,15.1113258 93.6157202,14.7480482 94.1166992,14.4902344 C94.6176783,14.2324206 95.2021451,14.1035156 95.8701172,14.1035156 C98.2255977,14.1035156 99.4033203,15.2900272 99.4033203,17.6630859 L99.4033203,24 Z M105.522461,24.1757812 C104.010735,24.1757812 102.828618,23.7348677 101.976074,22.8530273 C101.123531,21.971187 100.697266,20.7568437 100.697266,19.2099609 C100.697266,17.6220624 101.092769,16.374028 101.883789,15.4658203 C102.674809,14.5576126 103.761712,14.1035156 105.144531,14.1035156 C106.427741,14.1035156 107.441403,14.4931602 108.185547,15.2724609 C108.929691,16.0517617 109.301758,17.1240166 109.301758,18.4892578 L109.301758,19.6054688 L102.824219,19.6054688 C102.853516,20.5488328 103.108396,21.2739232 103.588867,21.7807617 C104.069338,22.2876002 104.746089,22.5410156 105.619141,22.5410156 C106.193362,22.5410156 106.728025,22.4868169 107.223145,22.378418 C107.718264,22.270019 108.249997,22.089845 108.818359,21.8378906 L108.818359,23.5166016 C108.314451,23.7568371 107.80469,23.9267573 107.289062,24.0263672 C106.773435,24.1259771 106.184574,24.1757812 105.522461,24.1757812 L105.522461,24.1757812 Z M105.144531,15.6679688 C104.488278,15.6679688 103.962404,15.8759745 103.566895,16.2919922 C103.171385,16.7080099 102.935547,17.3144491 102.859375,18.1113281 L107.271484,18.1113281 C107.259766,17.3085897 107.066408,16.7006857 106.691406,16.2875977 C106.316404,15.8745097 105.800785,15.6679688 105.144531,15.6679688 L105.144531,15.6679688 Z M114.893555,24.1757812 C113.381828,24.1757812 112.199711,23.7348677 111.347168,22.8530273 C110.494625,21.971187 110.068359,20.7568437 110.068359,19.2099609 C110.068359,17.6220624 110.463863,16.374028 111.254883,15.4658203 C112.045902,14.5576126 113.132806,14.1035156 114.515625,14.1035156 C115.798835,14.1035156 116.812496,14.4931602 117.556641,15.2724609 C118.300785,16.0517617 118.672852,17.1240166 118.672852,18.4892578 L118.672852,19.6054688 L112.195312,19.6054688 C112.22461,20.5488328 112.47949,21.2739232 112.959961,21.7807617 C113.440432,22.2876002 114.117183,22.5410156 114.990234,22.5410156 C115.564456,22.5410156 116.099119,22.4868169 116.594238,22.378418 C117.089358,22.270019 117.621091,22.089845 118.189453,21.8378906 L118.189453,23.5166016 C117.685544,23.7568371 117.175784,23.9267573 116.660156,24.0263672 C116.144529,24.1259771 115.555667,24.1757812 114.893555,24.1757812 L114.893555,24.1757812 Z M114.515625,15.6679688 C113.859372,15.6679688 113.333498,15.8759745 112.937988,16.2919922 C112.542478,16.7080099 112.306641,17.3144491 112.230469,18.1113281 L116.642578,18.1113281 C116.630859,17.3085897 116.437502,16.7006857 116.0625,16.2875977 C115.687498,15.8745097 115.171878,15.6679688 114.515625,15.6679688 L114.515625,15.6679688 Z M123.640625,22.5058594 C124.144534,22.5058594 124.648435,22.4267586 125.152344,22.2685547 L125.152344,23.8242188 C124.923827,23.9238286 124.629396,24.0073239 124.269043,24.074707 C123.90869,24.1420902 123.535158,24.1757812 123.148438,24.1757812 C121.191396,24.1757812 120.212891,23.1445416 120.212891,21.0820312 L120.212891,15.84375 L118.885742,15.84375 L118.885742,14.9296875 L120.30957,14.1738281 L121.012695,12.1171875 L122.287109,12.1171875 L122.287109,14.2792969 L125.055664,14.2792969 L125.055664,15.84375 L122.287109,15.84375 L122.287109,21.046875 C122.287109,21.5449244 122.41162,21.9125965 122.660645,22.1499023 C122.909669,22.3872082 123.236326,22.5058594 123.640625,22.5058594 L123.640625,22.5058594 Z M132.625,21.2314453 C132.625,22.1806688 132.2793,22.9086889 131.587891,23.4155273 C130.896481,23.9223658 129.906256,24.1757812 128.617188,24.1757812 C127.322259,24.1757812 126.28223,23.9794942 125.49707,23.5869141 L125.49707,21.8027344 C126.639654,22.3300808 127.70312,22.59375 128.6875,22.59375 C129.958991,22.59375 130.594727,22.2099648 130.594727,21.4423828 C130.594727,21.1962878 130.524415,20.9912118 130.383789,20.8271484 C130.243163,20.6630851 130.01172,20.4931649 129.689453,20.3173828 C129.367186,20.1416007 128.918948,19.9423839 128.344727,19.7197266 C127.22558,19.2861306 126.468264,18.8525412 126.072754,18.4189453 C125.677244,17.9853494 125.479492,17.422855 125.479492,16.7314453 C125.479492,15.8994099 125.814938,15.2534203 126.48584,14.793457 C127.156742,14.3334938 128.06933,14.1035156 129.223633,14.1035156 C130.366217,14.1035156 131.447261,14.3349586 132.466797,14.7978516 L131.798828,16.3535156 C130.749995,15.9199197 129.868168,15.703125 129.15332,15.703125 C128.063471,15.703125 127.518555,16.0136688 127.518555,16.6347656 C127.518555,16.9394546 127.660643,17.1972646 127.944824,17.4082031 C128.229005,17.6191417 128.848628,17.9091778 129.803711,18.2783203 C130.606449,18.5888687 131.189451,18.8730456 131.552734,19.1308594 C131.916017,19.3886732 132.185546,19.6860335 132.361328,20.0229492 C132.53711,20.359865 132.625,20.762693 132.625,21.2314453 L132.625,21.2314453 Z" id="Heading" fill="#4D5057"></path>
            </g>
        </g>
    </g>
</svg>